<svg enable-background="new 0 0 24 24" height="512" viewBox="0 0 24 24" width="512" xmlns="http://www.w3.org/2000/svg"><path d="m21 1h-18c-1.654 0-3 1.346-3 3v16c0 1.654 1.346 3 3 3h18c1.654 0 3-1.346 3-3v-16c0-1.654-1.346-3-3-3zm0 20h-18c-.551 0-1-.448-1-1v-14h20v14c0 .552-.449 1-1 1z"/><path d="m15.703 14.469c.02-.155.047-.309.047-.469 0-.161-.028-.314-.047-.469l.901-.682c.201-.152.257-.43.131-.649l-.809-1.4c-.126-.218-.395-.309-.627-.211l-1.037.437c-.253-.193-.522-.363-.819-.487l-.138-1.101c-.032-.25-.244-.438-.496-.438h-1.617c-.252 0-.465.188-.496.438l-.138 1.101c-.297.124-.567.295-.819.487l-1.037-.437c-.233-.098-.502-.008-.628.211l-.808 1.4c-.126.218-.07.496.131.649l.901.682c-.02.155-.048.308-.048.469s.028.314.047.469l-.901.682c-.201.152-.257.43-.131.649l.809 1.4c.126.218.395.309.627.211l1.037-.438c.253.193.522.363.819.487l.138 1.101c.032.251.244.439.496.439h1.617c.252 0 .465-.188.496-.438l.138-1.101c.297-.124.567-.295.819-.487l1.037.437c.232.098.501.008.627-.211l.809-1.401c.126-.218.07-.496-.131-.649zm-3.703 1.531c-1.105 0-2-.895-2-2s.895-2 2-2 2 .895 2 2-.895 2-2 2z"/></svg>