<svg enable-background="new 0 0 24 24" height="512" viewBox="0 0 24 24" width="512" xmlns="http://www.w3.org/2000/svg"><path d="m18.673 4.927c-1.313-2.399-3.885-3.927-6.673-3.927-3.545 0-6.619 2.465-7.397 5.829-2.583.272-4.603 2.442-4.603 5.071 0 2.812 2.312 5.1 5.152 5.1h.109c-.134-.595-.052-1.238.272-1.8l.809-1.4c.445-.771 1.275-1.25 2.166-1.25.121 0 .242.009.36.026.371-.93 1.281-1.576 2.323-1.576h1.617c1.042 0 1.952.645 2.323 1.576.119-.017.239-.026.36-.026.891 0 1.721.479 2.166 1.25l.809 1.4c.312.54.395 1.154.282 1.73 2.965-.425 5.252-2.948 5.252-5.997 0-3.066-2.307-5.625-5.327-6.006z"/><path d="m15.703 18.469c.02-.155.047-.309.047-.469 0-.161-.028-.314-.047-.469l.901-.682c.201-.152.257-.43.131-.649l-.809-1.4c-.126-.218-.395-.309-.627-.211l-1.037.437c-.253-.193-.522-.363-.819-.487l-.138-1.101c-.032-.25-.244-.438-.496-.438h-1.617c-.252 0-.465.188-.496.438l-.138 1.101c-.297.124-.567.295-.819.487l-1.037-.437c-.233-.098-.502-.008-.628.211l-.808 1.4c-.126.218-.07.496.131.649l.901.682c-.02.155-.048.308-.048.469s.028.314.047.469l-.901.682c-.201.152-.257.43-.131.649l.809 1.4c.126.218.395.309.627.211l1.037-.438c.253.193.522.363.819.487l.138 1.101c.032.251.244.439.496.439h1.617c.252 0 .465-.188.496-.438l.138-1.101c.297-.124.567-.295.819-.487l1.037.437c.232.098.501.008.627-.211l.809-1.401c.126-.218.07-.496-.131-.649zm-3.703 1.531c-1.105 0-2-.895-2-2s.895-2 2-2 2 .895 2 2-.895 2-2 2z"/></svg>