<svg enable-background="new 0 0 24 24" height="512" viewBox="0 0 24 24" width="512" xmlns="http://www.w3.org/2000/svg"><path d="m22.683 9.394-1.88-.239c-.155-.477-.346-.937-.569-1.374l1.161-1.495c.47-.605.415-1.459-.122-1.979l-1.575-1.575c-.525-.542-1.379-.596-1.985-.127l-1.493 1.161c-.437-.223-.897-.414-1.375-.569l-.239-1.877c-.09-.753-.729-1.32-1.486-1.32h-2.24c-.757 0-1.396.567-1.486 1.317l-.239 1.88c-.465.151-.911.338-1.338.553-.021 0-.041-.005-.062-.004l-1.469-1.141c-.604-.469-1.458-.415-1.979.122l-1.575 1.574c-.542.526-.597 1.38-.127 1.986l1.161 1.494c-.224.437-.414.897-.569 1.374l-1.877.239c-.753.09-1.32.729-1.32 1.486v2.24c0 .757.567 1.396 1.317 1.486l1.88.239c.155.477.346.937.569 1.374l-1.161 1.495c-.47.605-.415 1.459.122 1.979l1.575 1.575c.526.541 1.379.595 1.985.126l1.494-1.161c.437.224.897.415 1.374.569l.239 1.876c.09.755.729 1.322 1.486 1.322h2.24c.757 0 1.396-.567 1.486-1.317l.239-1.88c.477-.155.937-.346 1.374-.569l1.495 1.161c.605.47 1.459.415 1.979-.122l1.575-1.575c.542-.526.597-1.379.127-1.985l-1.161-1.494c.224-.437.415-.897.569-1.374l1.876-.239c.753-.09 1.32-.729 1.32-1.486v-2.24c.001-.757-.566-1.396-1.316-1.486zm-10.683-3.394c2.967 0 5.431 2.167 5.91 5h-3.621c-.388-.881-1.266-1.5-2.289-1.5-.093 0-.182.018-.273.028l-1.815-3.146c.651-.243 1.353-.382 2.088-.382zm-6 6c0-1.857.848-3.519 2.178-4.621l1.815 3.145c-.306.415-.493.922-.493 1.476s.187 1.061.493 1.476l-1.816 3.144c-1.329-1.101-2.177-2.763-2.177-4.62zm6 6c-.735 0-1.437-.139-2.088-.383l1.816-3.145c.09.01.179.028.272.028 1.023 0 1.901-.619 2.288-1.5h3.621c-.478 2.833-2.942 5-5.909 5z"/></svg>