<svg enable-background="new 0 0 24 24" height="512" viewBox="0 0 24 24" width="512" xmlns="http://www.w3.org/2000/svg"><path d="m22.25 4h-3.25c-.552 0-1 .448-1 1s.448 1 1 1h3v11h-20v-11h3c.552 0 1-.448 1-1s-.448-1-1-1h-3.25c-.966 0-1.75.784-1.75 1.75v13.5c0 .966.784 1.75 1.75 1.75h7.658c-.118.501-.429 1.314-1.262 2.146-.143.143-.186.358-.108.545.077.187.26.309.462.309h7c.202 0 .385-.122.462-.309s.034-.402-.108-.545c-.831-.831-1.151-1.644-1.275-2.146h7.671c.966 0 1.75-.784 1.75-1.75v-13.5c0-.966-.784-1.75-1.75-1.75z"/><path d="m7.266 6.8.808 1.4c.126.219.395.309.628.211l1.037-.438c.253.193.522.363.819.487l.138 1.101c.031.251.243.439.495.439h1.617c.252 0 .465-.188.496-.438l.138-1.101c.297-.124.567-.295.819-.487l1.037.437c.233.098.502.008.628-.211l.808-1.4c.126-.218.07-.496-.131-.649l-.901-.682c.02-.155.048-.308.048-.469s-.028-.314-.047-.469l.901-.682c.201-.152.257-.43.131-.649l-.809-1.4c-.126-.218-.395-.309-.627-.211l-1.037.437c-.253-.193-.522-.363-.819-.487l-.138-1.101c-.032-.25-.244-.438-.496-.438h-1.617c-.252 0-.465.188-.496.438l-.138 1.101c-.298.124-.567.295-.82.487l-1.036-.437c-.233-.098-.502-.008-.628.211l-.808 1.4c-.126.218-.07.496.131.649l.901.682c-.02.155-.048.308-.048.469s.028.314.047.469l-.9.682c-.201.152-.258.43-.131.649zm4.734-3.8c1.105 0 2 .895 2 2s-.895 2-2 2-2-.895-2-2 .895-2 2-2z"/></svg>