<svg enable-background="new 0 0 24 24" height="512" viewBox="0 0 24 24" width="512" xmlns="http://www.w3.org/2000/svg"><path d="m18.301 0h-12.602c-1.488 0-2.699 1.21-2.699 2.699v18.603c0 1.488 1.211 2.698 2.699 2.698h12.602c1.488 0 2.699-1.21 2.699-2.699v-18.602c0-1.489-1.211-2.699-2.699-2.699zm-2.551 12c0 .161-.028.314-.047.469l.901.682c.201.152.257.43.131.649l-.809 1.4c-.126.218-.395.309-.627.211l-1.037-.437c-.253.193-.522.363-.819.487l-.138 1.101c-.032.25-.244.438-.496.438h-1.617c-.252 0-.465-.188-.496-.438l-.138-1.101c-.297-.124-.567-.295-.819-.487l-1.037.438c-.233.097-.502.007-.628-.212l-.808-1.4c-.126-.218-.07-.496.131-.649l.901-.682c-.02-.155-.048-.308-.048-.469s.028-.314.047-.469l-.901-.682c-.201-.152-.257-.43-.131-.649l.809-1.4c.126-.219.395-.309.628-.211l1.037.437c.253-.193.522-.363.819-.487l.138-1.101c.031-.25.243-.438.495-.438h1.617c.252 0 .465.188.496.438l.138 1.101c.297.124.567.295.819.487l1.037-.437c.233-.098.502-.008.628.211l.809 1.401c.126.218.07.496-.131.649l-.901.682c.019.154.047.307.047.468z"/><circle cx="12" cy="12" r="2"/></svg>