<svg enable-background="new 0 0 24 24" height="512" viewBox="0 0 24 24" width="512" xmlns="http://www.w3.org/2000/svg"><path d="m21.25 2h-10.939l-1.781-1.78c-.14-.141-.331-.22-.53-.22h-5.25c-1.517 0-2.75 1.233-2.75 2.75v12.5c0 1.517 1.233 2.75 2.75 2.75h2.511c-.134-.595-.052-1.238.272-1.8l.809-1.4c.445-.771 1.275-1.25 2.166-1.25.121 0 .242.009.36.026.371-.93 1.281-1.576 2.323-1.576h1.617c1.042 0 1.952.645 2.323 1.576.119-.017.239-.026.36-.026.891 0 1.721.479 2.166 1.25l.809 1.4c.324.562.406 1.205.272 1.8h2.511c1.517 0 2.75-1.233 2.75-2.75v-10.5c.001-1.517-1.232-2.75-2.749-2.75z"/><path d="m15.703 19.469c.02-.155.047-.309.047-.469 0-.161-.028-.314-.047-.469l.901-.682c.201-.152.257-.43.131-.649l-.809-1.4c-.126-.218-.395-.309-.627-.211l-1.037.437c-.253-.193-.522-.363-.819-.487l-.138-1.101c-.032-.25-.244-.438-.496-.438h-1.617c-.252 0-.465.188-.496.438l-.138 1.101c-.297.124-.567.295-.819.487l-1.037-.437c-.233-.098-.502-.008-.628.211l-.808 1.4c-.126.218-.07.496.131.649l.901.682c-.02.155-.048.308-.048.469s.028.314.047.469l-.901.682c-.201.152-.257.43-.131.649l.809 1.4c.126.218.395.309.627.211l1.037-.438c.253.193.522.363.819.487l.138 1.101c.032.251.244.439.496.439h1.617c.252 0 .465-.188.496-.438l.138-1.101c.297-.124.567-.295.819-.487l1.037.437c.232.098.501.008.627-.211l.809-1.401c.126-.218.07-.496-.131-.649zm-3.703 1.531c-1.105 0-2-.895-2-2s.895-2 2-2 2 .895 2 2-.895 2-2 2z"/></svg>