<svg enable-background="new 0 0 24 24" height="512" viewBox="0 0 24 24" width="512" xmlns="http://www.w3.org/2000/svg"><path d="m21.25 0h-18.5c-1.517 0-2.75 1.233-2.75 2.75v18.5c0 1.517 1.233 2.75 2.75 2.75h18.5c1.517 0 2.75-1.233 2.75-2.75v-18.5c0-1.517-1.233-2.75-2.75-2.75zm-2.75 12c0 .337-.025.673-.076 1l1.651 1.289c.391.304.499.858.251 1.288l-1.066 1.848c-.247.429-.777.613-1.239.428l-1.957-.785c-.517.42-1.1.758-1.712.993l-.296 2.081c-.07.49-.496.859-.99.859h-2.132c-.495 0-.92-.369-.99-.859l-.296-2.08c-.611-.232-1.188-.565-1.72-.995l-1.948.785c-.459.185-.993 0-1.24-.428l-1.066-1.848c-.247-.429-.139-.982.249-1.287l1.653-1.297c-.051-.325-.076-.657-.076-.992 0-.337.025-.673.076-1l-1.651-1.289c-.39-.304-.499-.858-.251-1.288l1.066-1.847c.248-.428.78-.612 1.239-.428l1.957.785c.517-.42 1.1-.758 1.712-.993l.296-2.081c.07-.49.495-.859.99-.859h2.132c.495 0 .92.369.99.859l.296 2.08c.611.232 1.188.565 1.72.995l1.948-.785c.459-.185.993-.001 1.24.428l1.066 1.848c.247.429.139.982-.249 1.287l-1.653 1.297c.051.324.076.656.076.991z"/><circle cx="12" cy="12" r="3.5"/></svg>