<svg enable-background="new 0 0 24 24" height="512" viewBox="0 0 24 24" width="512" xmlns="http://www.w3.org/2000/svg"><path d="m23.341 6.169c-.69-.69-1.719-.829-2.555-.432l-5.225-5.226c-.663-.661-1.812-.659-2.471 0l-2.83 2.831c-.684.684-.684 1.796 0 2.48l3.252 3.252-3.57 3.578-.712-.711c-.684-.682-1.792-.681-2.476 0l-5.656 5.657c-.707.709-1.098 1.651-1.098 2.652s.39 1.943 1.099 2.651c.708.709 1.649 1.099 2.651 1.099s1.943-.39 2.651-1.099l5.657-5.657c.683-.682.683-1.792 0-2.475l-.702-.703 3.57-3.578.555.555c-.393.835-.254 1.86.434 2.549.438.439 1.015.658 1.591.658.577 0 1.153-.219 1.592-.658l4.242-4.242c.878-.876.878-2.303.001-3.181z"/></svg>