<svg enable-background="new 0 0 24 24" height="512" viewBox="0 0 24 24" width="512" xmlns="http://www.w3.org/2000/svg"><path d="m21.953 10.469c.019-.155.047-.308.047-.469s-.028-.314-.047-.469l.901-.682c.201-.152.257-.43.131-.649l-.809-1.4c-.126-.218-.395-.309-.627-.211l-1.037.437c-.253-.193-.522-.363-.819-.487l-.138-1.101c-.032-.25-.244-.438-.496-.438h-1.617c-.252 0-.465.188-.496.438l-.138 1.101c-.297.124-.567.295-.819.487l-1.037-.437c-.233-.098-.502-.008-.628.211l-.808 1.4c-.126.218-.07.496.131.649l.901.682c-.02.155-.048.308-.048.469s.028.314.047.469l-.901.682c-.201.152-.257.43-.131.649l.809 1.401c.126.218.395.309.627.211l1.037-.438c.253.193.522.363.819.487l.138 1.101c.032.25.244.438.496.438h1.617c.252 0 .465-.188.496-.438l.138-1.101c.297-.124.567-.295.819-.487l1.037.437c.232.098.501.008.627-.211l.809-1.401c.126-.218.07-.496-.131-.649zm-3.703 1.531c-1.105 0-2-.895-2-2s.895-2 2-2 2 .895 2 2-.895 2-2 2z"/><path d="m14 16v3h-12v-16c0-.552.448-1 1-1h10c.552 0 1 .448 1 1v1c0 .552.448 1 1 1s1-.448 1-1v-1c0-1.657-1.343-3-3-3h-10c-1.657 0-3 1.343-3 3v18c0 1.657 1.343 3 3 3h10c1.657 0 3-1.343 3-3v-5c0-.552-.448-1-1-1s-1 .448-1 1z"/></svg>