<svg enable-background="new 0 0 24 24" height="512" viewBox="0 0 24 24" width="512" xmlns="http://www.w3.org/2000/svg"><path d="m23.634 1.859-1.488-1.492c-.453-.453-1.169-.493-1.667-.092l-3.185 2.555c-.06.048-.112.105-.155.169l-.959 1.442c-.399.6-.36 1.365.033 1.944l-4.847 4.863-.721-.721c-.66-.662-1.813-.661-2.475 0l-7.071 7.071c-.709.709-1.099 1.651-1.099 2.652s.39 1.943 1.099 2.651c.708.709 1.65 1.099 2.651 1.099s1.943-.39 2.651-1.099l7.071-7.071c.331-.331.513-.77.513-1.237 0-.468-.182-.907-.513-1.237l-.693-.693 4.828-4.844c.296.203.642.31.992.31.336 0 .674-.096.969-.293l1.439-.962c.064-.043.122-.095.169-.156l2.549-3.194c.399-.499.359-1.214-.091-1.665z"/></svg>