<svg enable-background="new 0 0 24 24" height="512" viewBox="0 0 24 24" width="512" xmlns="http://www.w3.org/2000/svg"><circle cx="9.5" cy="9.5" r="2"/><path d="m23.707 22.293-6.825-6.826c1.322-1.632 2.118-3.707 2.118-5.967 0-5.238-4.262-9.5-9.5-9.5s-9.5 4.262-9.5 9.5 4.262 9.5 9.5 9.5c2.26 0 4.335-.796 5.968-2.119l6.825 6.826c.195.195.451.293.707.293s.512-.098.707-.293c.391-.391.391-1.023 0-1.414zm-10.457-12.793c0 .161-.028.314-.047.469l.901.682c.201.152.257.43.131.649l-.809 1.4c-.126.218-.395.309-.627.211l-1.037-.437c-.253.193-.522.363-.819.487l-.138 1.101c-.031.25-.244.438-.496.438h-1.618c-.252 0-.465-.188-.496-.438l-.138-1.101c-.297-.124-.567-.295-.819-.487l-1.037.438c-.232.097-.501.007-.627-.212l-.808-1.4c-.126-.218-.07-.496.131-.649l.901-.682c-.02-.155-.048-.308-.048-.469s.028-.314.047-.469l-.9-.682c-.201-.152-.258-.43-.131-.649l.808-1.4c.126-.219.395-.309.628-.211l1.037.437c.252-.192.521-.363.819-.487l.138-1.101c.031-.25.243-.438.495-.438h1.617c.252 0 .465.188.496.438l.138 1.101c.297.124.567.295.819.487l1.037-.437c.233-.098.502-.008.628.211l.808 1.4c.126.218.07.496-.131.649l-.901.682c.02.155.048.308.048.469z"/></svg>