<svg enable-background="new 0 0 24 24" height="512" viewBox="0 0 24 24" width="512" xmlns="http://www.w3.org/2000/svg"><path d="m20.703 6.469c.019-.155.047-.308.047-.469s-.028-.314-.047-.469l.901-.682c.201-.152.257-.43.131-.649l-.809-1.4c-.126-.218-.395-.309-.627-.211l-1.037.437c-.253-.193-.522-.363-.819-.487l-.138-1.101c-.032-.25-.244-.438-.496-.438h-1.617c-.252 0-.465.188-.496.438l-.138 1.101c-.297.124-.567.295-.819.487l-1.037-.437c-.233-.098-.502-.008-.628.211l-.808 1.4c-.126.218-.07.496.131.649l.901.682c-.02.155-.048.308-.048.469s.028.314.047.469l-.901.682c-.201.152-.257.43-.131.649l.809 1.4c.126.218.395.309.627.211l1.037-.438c.253.193.522.363.819.487l.138 1.101c.032.251.244.439.496.439h1.617c.252 0 .465-.188.496-.438l.138-1.101c.297-.124.567-.295.819-.487l1.037.437c.233.098.502.008.628-.211l.808-1.4c.126-.218.07-.496-.131-.649zm-3.703 1.531c-1.105 0-2-.895-2-2s.895-2 2-2 2 .895 2 2-.895 2-2 2z"/><path d="m.492 12.002c-.273.005-.492.227-.492.5v9.248c0 .138.112.25.25.25h2.372c.224 0 .42-.148.481-.363l2.213-7.798c.143-.504-.127-1.034-.62-1.213-.906-.33-2.296-.656-4.204-.624z"/><path d="m22 17.5c-2 0-6 2.531-8 2.531s-4.25-1.531-4.25-1.531 2.694.5 4.25.5 2-.531 2-1.25c0-1.75-2.972-2.022-4.476-2.251-1.476-.822-2.243-1.472-4.688-1.679-.014.143-.036.285-.076.426l-2.009 7.08c2.275 1.035 6.193 2.674 8.249 2.674 3 0 11-4 11-5s-1-1.5-2-1.5z"/></svg>