<svg enable-background="new 0 0 24 24" height="512" viewBox="0 0 24 24" width="512" xmlns="http://www.w3.org/2000/svg"><path d="m18.5 0h-13c-3.032 0-5.5 2.467-5.5 5.5s2.468 5.5 5.5 5.5h13c3.032 0 5.5-2.467 5.5-5.5s-2.468-5.5-5.5-5.5zm-13 8c-1.379 0-2.5-1.122-2.5-2.5s1.121-2.5 2.5-2.5 2.5 1.122 2.5 2.5-1.121 2.5-2.5 2.5z"/><path d="m18.5 13h-13c-3.032 0-5.5 2.467-5.5 5.5s2.468 5.5 5.5 5.5h13c3.032 0 5.5-2.467 5.5-5.5s-2.468-5.5-5.5-5.5zm0 8c-1.379 0-2.5-1.122-2.5-2.5s1.121-2.5 2.5-2.5 2.5 1.122 2.5 2.5-1.121 2.5-2.5 2.5z"/></svg>