<?xml version="1.0" encoding="iso-8859-1"?>
<!-- Generator: Adobe Illustrator 19.0.0, SVG Export Plug-In . SVG Version: 6.00 Build 0)  -->
<svg version="1.1" id="Capa_1" xmlns="http://www.w3.org/2000/svg" x="0px" y="0px"
     viewBox="0 0 512.008 512.008" style="enable-background:new 0 0 512.008 512.008;" xml:space="preserve">
<path d="M512.008,90.532L489.384,22.66L421.512,0.004v45.248l-16.8,16.8l-9.376-9.376c-6.24-6.24-16.384-6.24-22.624,0
	s-6.24,16.384,0,22.624l9.376,9.376l-94.176,94.176l-0.096-0.096c-1.152-1.12-2.464-2.08-3.872-2.816
	c-28.256-14.88-60.96-18.784-91.968-10.976c-5.792,1.44-10.304,6.016-11.68,11.808c-3.968,16.608-12.544,31.904-24.928,44.256
	c-2.304,2.336-5.152,4.64-8.704,7.232c-10.656,8.736-22.56,14.656-35.84,17.696c-12.416,3.264-25.472,3.84-37.6,1.664
	c-4.128-0.8-8.384,0.16-11.84,2.528c-6.848,4.672-13.344,10.048-19.264,16c-56.16,56.192-56.16,147.552,0,203.744
	c28.096,28.096,64.992,42.112,101.888,42.112s73.792-14.016,101.888-42.112c5.952-5.952,11.328-12.416,16-19.296
	c2.368-3.424,3.264-7.68,2.528-11.808c-2.176-12.192-1.6-25.184,1.76-38.08c2.912-12.768,8.832-24.672,18.112-36.064
	c2.08-2.816,4.352-5.696,6.72-8.032c12.352-12.352,27.648-20.928,44.224-24.864c5.824-1.376,10.368-5.888,11.84-11.68
	c7.744-31.072,3.84-63.712-11.008-91.968c-0.736-1.44-1.696-2.72-2.848-3.872l-0.096-0.096l94.176-94.176l9.376,9.376
	c3.136,3.104,7.232,4.672,11.328,4.672s8.192-1.568,11.328-4.672c6.24-6.24,6.24-16.384,0-22.624l-9.376-9.376l16.8-16.8H512.008z
	 M171.336,427.332c-3.136,3.104-7.232,4.672-11.328,4.672s-8.192-1.568-11.328-4.672l-64-64c-6.24-6.24-6.24-16.384,0-22.624
	s16.384-6.24,22.624,0l64,64C177.576,410.948,177.576,421.06,171.336,427.332z"/>
<g>
</g>
<g>
</g>
<g>
</g>
<g>
</g>
<g>
</g>
<g>
</g>
<g>
</g>
<g>
</g>
<g>
</g>
<g>
</g>
<g>
</g>
<g>
</g>
<g>
</g>
<g>
</g>
<g>
</g>
</svg>
