<?xml version="1.0" encoding="iso-8859-1"?>
<!-- Generator: Adobe Illustrator 19.0.0, SVG Export Plug-In . SVG Version: 6.00 Build 0)  -->
<svg version="1.1" id="Capa_1" xmlns="http://www.w3.org/2000/svg" x="0px" y="0px"
     viewBox="0 0 512 512" style="enable-background:new 0 0 512 512;" xml:space="preserve">
<path d="M320,160h48v-32h-48c-8.832,0-16-7.168-16-16s7.168-16,16-16h46.368C358.528,41.856,312.256,0,256,0
	S153.472,41.856,145.632,96H192c8.832,0,16,7.168,16,16s-7.168,16-16,16h-48v32h48c8.832,0,16,7.168,16,16s-7.168,16-16,16h-48v32
	h224v-32h-48c-8.832,0-16-7.168-16-16S311.168,160,320,160z"/>
<path d="M366.4,256H145.6c7.072,48.96,45.536,87.456,94.4,94.528V448h-16c-26.464,0-48,21.536-48,48v16h160v-16
	c0-26.464-21.536-48-48-48h-16v-97.472C320.864,343.456,359.328,304.96,366.4,256z"/>
<g>
</g>
<g>
</g>
<g>
</g>
<g>
</g>
<g>
</g>
<g>
</g>
<g>
</g>
<g>
</g>
<g>
</g>
<g>
</g>
<g>
</g>
<g>
</g>
<g>
</g>
<g>
</g>
<g>
</g>
</svg>
