<?xml version="1.0" encoding="iso-8859-1"?>
<!-- Generator: Adobe Illustrator 19.0.0, SVG Export Plug-In . SVG Version: 6.00 Build 0)  -->
<svg version="1.1" id="Capa_1" xmlns="http://www.w3.org/2000/svg" x="0px" y="0px"
	 viewBox="0 0 512 512" style="enable-background:new 0 0 512 512;" xml:space="preserve">
<path d="M480,64H32C14.368,64,0,78.368,0,96v320c0,17.664,14.368,32,32,32h448c17.664,0,32-14.336,32-32V96
	C512,78.368,497.664,64,480,64z M192,384c-70.592,0-128-57.408-128-128s57.408-128,128-128s128,57.408,128,128S262.592,384,192,384z
	 M448,240c0,8.832-7.168,16-16,16h-16v64c0,5.024-2.368,9.792-6.4,12.8l-64,48c-2.88,2.144-6.24,3.2-9.6,3.2
	c-4.832,0-9.664-2.208-12.8-6.4c-5.28-7.072-3.84-17.088,3.232-22.4L384,312v-56h-16c-8.832,0-16-7.168-16-16v-96
	c0-8.832,7.168-16,16-16h64c8.832,0,16,7.168,16,16V240z"/>
<path d="M192,160c-8.832,0-16,7.168-16,16s7.168,16,16,16c35.296,0,64,28.704,64,64c0,8.832,7.168,16,16,16s16-7.168,16-16
	C288,203.072,244.928,160,192,160z"/>
<path d="M192,320c-35.296,0-64-28.704-64-64c0-8.832-7.168-16-16-16s-16,7.168-16,16c0,52.928,43.072,96,96,96
	c8.832,0,16-7.168,16-16S200.832,320,192,320z"/>
<g>
</g>
<g>
</g>
<g>
</g>
<g>
</g>
<g>
</g>
<g>
</g>
<g>
</g>
<g>
</g>
<g>
</g>
<g>
</g>
<g>
</g>
<g>
</g>
<g>
</g>
<g>
</g>
<g>
</g>
</svg>
