<?xml version="1.0" encoding="iso-8859-1"?>
<!-- Generator: Adobe Illustrator 19.0.0, SVG Export Plug-In . SVG Version: 6.00 Build 0)  -->
<svg version="1.1" id="Capa_1" xmlns="http://www.w3.org/2000/svg" x="0px" y="0px"
     viewBox="0 0 512.008 512.008" style="enable-background:new 0 0 512.008 512.008;" xml:space="preserve">
<path d="M507.328,163.08c-6.24-6.24-16.384-6.24-22.624,0L337.632,310.152c-37.44,37.44-98.368,37.376-135.776,0
	c-37.44-37.44-37.44-98.336,0-135.776l147.04-147.072c6.24-6.24,6.24-16.384,0-22.624s-16.384-6.24-22.624,0l-147.04,147.072
	c-46.016,46.016-49.056,118.4-10.176,168.576L96.32,393.096c-9.536-5.632-20.48-9.088-32.32-9.088c-35.296,0-64,28.704-64,64
	s28.704,64,64,64s64-28.704,64-64c0-11.84-3.456-22.784-9.056-32.288l72.736-72.768c22.976,17.792,50.368,27.264,78.048,27.264
	c32.768,0,65.536-12.48,90.528-37.408l147.072-147.072C513.568,179.464,513.568,169.352,507.328,163.08z M64,480.008
	c-17.632,0-32-14.336-32-32s14.368-32,32-32c8.8,0,16.768,3.584,22.56,9.344c0.032,0.032,0.032,0.032,0.032,0.064
	c0,0,0.032,0,0.032,0.032c5.792,5.792,9.376,13.76,9.376,22.56C96,465.672,81.632,480.008,64,480.008z"/>
<g>
</g>
<g>
</g>
<g>
</g>
<g>
</g>
<g>
</g>
<g>
</g>
<g>
</g>
<g>
</g>
<g>
</g>
<g>
</g>
<g>
</g>
<g>
</g>
<g>
</g>
<g>
</g>
<g>
</g>
</svg>
