<?xml version="1.0" encoding="iso-8859-1"?>
<!-- Generator: Adobe Illustrator 19.0.0, SVG Export Plug-In . SVG Version: 6.00 Build 0)  -->
<svg version="1.1" id="Capa_1" xmlns="http://www.w3.org/2000/svg" x="0px" y="0px"
     viewBox="0 0 512 512" style="enable-background:new 0 0 512 512;" xml:space="preserve">
<path d="M512,176.004H336h-32h-32c-61.76,0-112,50.24-112,112s50.24,112,112,112h64c61.76,0,112-50.24,112-112
	c0-17.248-4.256-33.408-11.232-48H512V176.004z M336,336.004h-64c-26.464,0-48-21.536-48-48s21.536-48,48-48h32h32
	c26.464,0,48,21.536,48,48S362.464,336.004,336,336.004z"/>
<path d="M186.304,172.964C123.456,150.596,67.84,109.06,29.024,54.692c-4.032-5.664-11.264-8.032-17.92-5.952
	C4.512,50.884,0,57.06,0,64.004v384c0,6.976,4.512,13.12,11.136,15.264c1.6,0.48,3.232,0.736,4.864,0.736
	c5.088,0,9.984-2.4,13.024-6.72c30.24-42.4,70.88-77.12,117.056-100.832C134.912,336.004,128,312.9,128,288.004
	C128,240.804,151.136,199.236,186.304,172.964z"/>
<g>
</g>
<g>
</g>
<g>
</g>
<g>
</g>
<g>
</g>
<g>
</g>
<g>
</g>
<g>
</g>
<g>
</g>
<g>
</g>
<g>
</g>
<g>
</g>
<g>
</g>
<g>
</g>
<g>
</g>
</svg>
