<?xml version="1.0" encoding="iso-8859-1"?>
<!-- Generator: Adobe Illustrator 19.0.0, SVG Export Plug-In . SVG Version: 6.00 Build 0)  -->
<svg version="1.1" id="Capa_1" xmlns="http://www.w3.org/2000/svg" x="0px" y="0px"
     viewBox="0 0 512 512" style="enable-background:new 0 0 512 512;" xml:space="preserve">
<path d="M512,256c0-39.424-28.704-72.064-66.304-78.624c21.728-31.296,18.912-74.624-8.8-102.304
	c-27.648-27.68-70.944-30.496-102.304-8.8C328.064,28.736,295.424,0,256,0s-72.064,28.736-78.624,66.304
	c-31.296-21.76-74.592-18.912-102.272,8.8c-27.712,27.648-30.528,70.944-8.8,102.272C28.736,183.936,0,216.576,0,256
	s28.704,72.064,66.272,78.624c-21.696,31.328-18.88,74.624,8.8,102.304c15.52,15.52,35.968,23.296,56.448,23.296
	c16.064,0,32.064-4.96,45.824-14.496C183.936,483.296,216.576,512,256,512s72.064-28.704,78.624-66.272
	c13.76,9.536,29.76,14.464,45.824,14.464c20.512,0,40.928-7.744,56.48-23.296c27.648-27.648,30.496-70.944,8.8-102.304
	C483.296,328.064,512,295.424,512,256z M414.272,97.728c16.032,16,17.376,40.416,5.824,59.008
	c-16.064-26.528-38.336-48.768-64.864-64.864C373.888,80.352,398.304,81.696,414.272,97.728z M256,384c-70.592,0-128-57.408-128-128
	s57.408-128,128-128s128,57.408,128,128S326.592,384,256,384z M256,32c23.04,0,42.304,16.32,46.912,38.016
	C287.872,66.24,272.224,64,256,64s-31.872,2.24-46.912,6.016C213.696,48.32,232.96,32,256,32z M97.728,97.728
	c16-15.968,40.416-17.344,59.008-5.824c-26.528,16.064-48.768,38.304-64.864,64.832C80.352,138.112,81.696,113.728,97.728,97.728z
	 M32,256c0-23.04,16.32-42.304,38.016-46.912C66.24,224.128,64,239.776,64,256s2.24,31.872,6.016,46.912
	C48.32,298.304,32,279.04,32,256z M97.728,414.272c-16-16.032-17.376-40.416-5.856-59.04c16.064,26.528,38.336,48.768,64.864,64.864
	C138.08,431.648,113.728,430.304,97.728,414.272z M256,480c-23.04,0-42.304-16.32-46.912-38.016C224.128,445.76,239.776,448,256,448
	s31.872-2.24,46.912-6.016C298.304,463.68,279.04,480,256,480z M414.272,414.272c-16.032,16.032-40.416,17.344-59.04,5.856
	c26.528-16.064,48.8-38.336,64.864-64.864C431.648,373.888,430.272,398.272,414.272,414.272z M441.984,302.912
	C445.76,287.872,448,272.224,448,256s-2.24-31.872-6.016-46.912C463.68,213.696,480,232.96,480,256S463.68,298.304,441.984,302.912z
	"/>
<g>
</g>
<g>
</g>
<g>
</g>
<g>
</g>
<g>
</g>
<g>
</g>
<g>
</g>
<g>
</g>
<g>
</g>
<g>
</g>
<g>
</g>
<g>
</g>
<g>
</g>
<g>
</g>
<g>
</g>
</svg>
