<?xml version="1.0" encoding="iso-8859-1"?>
<!-- Generator: Adobe Illustrator 19.0.0, SVG Export Plug-In . SVG Version: 6.00 Build 0)  -->
<svg version="1.1" id="Capa_1" xmlns="http://www.w3.org/2000/svg" x="0px" y="0px"
     viewBox="0 0 512 512" style="enable-background:new 0 0 512 512;" xml:space="preserve">
<path d="M416,0H96C78.368,0,64,14.368,64,32v448c0,17.664,14.368,32,32,32h320c17.664,0,32-14.336,32-32V32
	C448,14.368,433.632,0,416,0z M256.32,63.68c35.296,0,64,28.704,64,64s-28.704,64-64,64s-64-28.704-64-64
	S221.024,63.68,256.32,63.68z M128.64,47.68h0.32c8.832,0,16,7.168,16,16s-7.168,16-16,16c-8.832,0-16.16-7.168-16.16-16
	S119.808,47.68,128.64,47.68z M128.96,463.68c-8.832,0-16.16-7.168-16.16-16s7.008-16,15.84-16h0.32c8.832,0,16,7.168,16,16
	S137.792,463.68,128.96,463.68z M256.32,447.68c-61.76,0-112-50.24-112-112s50.24-112,112-112s112,50.24,112,112
	S318.08,447.68,256.32,447.68z M384.96,463.68c-8.8,0-16.16-7.168-16.16-16s7.008-16,15.84-16h0.32c8.832,0,16,7.168,16,16
	S393.792,463.68,384.96,463.68z M384.96,79.68c-8.8,0-16.16-7.168-16.16-16s7.008-16,15.84-16h0.32c8.832,0,16,7.168,16,16
	S393.792,79.68,384.96,79.68z"/>
<g>
</g>
<g>
</g>
<g>
</g>
<g>
</g>
<g>
</g>
<g>
</g>
<g>
</g>
<g>
</g>
<g>
</g>
<g>
</g>
<g>
</g>
<g>
</g>
<g>
</g>
<g>
</g>
<g>
</g>
</svg>
