<?xml version="1.0" encoding="iso-8859-1"?>
<!-- Generator: Adobe Illustrator 19.0.0, SVG Export Plug-In . SVG Version: 6.00 Build 0)  -->
<svg version="1.1" id="Capa_1" xmlns="http://www.w3.org/2000/svg" x="0px" y="0px"
     viewBox="0 0 512.024 512.024" style="enable-background:new 0 0 512.024 512.024;" xml:space="preserve">
<path d="M507.336,276.242l-22.624-22.624L258.408,27.346L235.784,4.69c-6.24-6.24-16.384-6.24-22.624,0s-6.24,16.384,0,22.624
	l11.328,11.328L88.712,174.418L77.384,163.09c-6.24-6.24-16.384-6.24-22.624,0s-6.24,16.384,0,22.624l22.624,22.624l90.528,90.528
	L9.384,457.394c-12.512,12.512-12.512,32.768,0,45.248s32.768,12.512,45.248,0L213.16,344.114l90.496,90.496l22.624,22.624
	c3.136,3.136,7.232,4.672,11.328,4.672s8.192-1.568,11.328-4.672c6.24-6.24,6.24-16.384,0-22.624l-11.296-11.296L473.416,287.57
	l11.328,11.328c3.136,3.136,7.232,4.672,11.328,4.672s8.192-1.568,11.328-4.672C513.576,292.626,513.576,282.482,507.336,276.242z
	 M179.24,213.042c-4.096,0-8.192-1.568-11.328-4.672c-6.24-6.24-6.24-16.384,0-22.624l67.872-67.872c6.24-6.24,16.384-6.24,22.624,0
	c6.24,6.24,6.24,16.384,0,22.624l-67.872,67.84C187.4,211.474,183.336,213.042,179.24,213.042z M224.488,258.29
	c-4.096,0-8.192-1.568-11.328-4.672c-6.24-6.24-6.24-16.384,0-22.624l67.872-67.904c6.24-6.24,16.384-6.24,22.624,0
	s6.24,16.384,0,22.624l-67.872,67.904C232.68,256.722,228.584,258.29,224.488,258.29z M269.736,303.538
	c-4.096,0-8.192-1.568-11.328-4.672c-6.24-6.24-6.24-16.384,0-22.624l67.872-67.904c6.24-6.24,16.384-6.24,22.624,0
	s6.24,16.384,0,22.624l-67.872,67.904C277.928,302.002,273.832,303.538,269.736,303.538z M394.184,276.242l-67.904,67.872
	c-3.136,3.136-7.232,4.672-11.328,4.672s-8.192-1.568-11.328-4.672c-6.24-6.24-6.24-16.384,0-22.624l67.904-67.872
	c6.24-6.24,16.384-6.24,22.624,0C400.392,259.858,400.456,270.002,394.184,276.242z"/>
<g>
</g>
<g>
</g>
<g>
</g>
<g>
</g>
<g>
</g>
<g>
</g>
<g>
</g>
<g>
</g>
<g>
</g>
<g>
</g>
<g>
</g>
<g>
</g>
<g>
</g>
<g>
</g>
<g>
</g>
</svg>
