<?xml version="1.0" encoding="iso-8859-1"?>
<!-- Generator: Adobe Illustrator 19.0.0, SVG Export Plug-In . SVG Version: 6.00 Build 0)  -->
<svg version="1.1" id="Capa_1" xmlns="http://www.w3.org/2000/svg" x="0px" y="0px"
     viewBox="0 0 412.483 412.483" style="enable-background:new 0 0 412.483 412.483;" xml:space="preserve">
<path d="M330.79,96.387l-108.544,24.128v-63.2l115.456-25.696c8.64-1.92,14.048-10.464,12.16-19.104
	c-1.92-8.608-10.304-13.984-19.104-12.16l-128,28.48c-7.296,1.664-12.512,8.16-12.512,15.648v253.12
	c-13.408-8.128-29.92-13.12-48-13.12c-44.096,0-80,28.704-80,64s35.904,64,80,64s80-28.704,80-64V153.315l115.456-25.696
	c8.64-1.92,14.048-10.464,12.16-19.104C347.974,99.907,339.558,94.531,330.79,96.387z"/>
<g>
</g>
<g>
</g>
<g>
</g>
<g>
</g>
<g>
</g>
<g>
</g>
<g>
</g>
<g>
</g>
<g>
</g>
<g>
</g>
<g>
</g>
<g>
</g>
<g>
</g>
<g>
</g>
<g>
</g>
</svg>
