<?xml version="1.0" encoding="iso-8859-1"?>
<!-- Generator: Adobe Illustrator 19.0.0, SVG Export Plug-In . SVG Version: 6.00 Build 0)  -->
<svg version="1.1" id="Capa_1" xmlns="http://www.w3.org/2000/svg" x="0px" y="0px"
     viewBox="0 0 512 512" style="enable-background:new 0 0 512 512;" xml:space="preserve">
<path d="M465.538,301.248l-158.368-158.4c-18.656-18.72-49.184-18.752-67.904,0c-18.72,18.72-18.72,49.152,0,67.872l158.4,158.4
	c9.056,9.056,21.12,14.048,33.952,14.048s24.864-4.992,33.952-14.048C484.258,350.4,484.258,319.968,465.538,301.248z"/>
<path d="M209.634,295.2L160.386,54.24C159.458,24.16,134.722,0,104.418,0c-30.88,0-56,25.12-56,56v8c-8.832,0-16,7.168-16,16
	s7.168,16,16,16h32c8.832,0,16-7.168,16-16s-7.168-16-16-16v-8c0-13.248,10.752-24,24-24c13.152,0,23.872,10.624,24,23.744
	c0,0.192,0,0.352,0,0.576V160h-32c-8.832,0-16,7.168-16,16s7.168,16,16,16h32v32h-32c0-8.832-7.168-16-16-16s-16,7.168-16,16v32
	c0,8.832,7.168,16,16,16s16-7.168,16-16h32v150.08c0,27.616,11.232,54.912,31.04,75.104c20,19.584,47.296,30.816,74.88,30.816
	c37.408,0,72.256-19.968,90.88-52.032c16.48-28.032,33.376-50.496,50.048-68.096l-155.84-155.84
	C215.17,253.056,211.842,272.736,209.634,295.2z"/>
<g>
</g>
<g>
</g>
<g>
</g>
<g>
</g>
<g>
</g>
<g>
</g>
<g>
</g>
<g>
</g>
<g>
</g>
<g>
</g>
<g>
</g>
<g>
</g>
<g>
</g>
<g>
</g>
<g>
</g>
</svg>
