<?xml version="1.0" encoding="iso-8859-1"?>
<!-- Generator: Adobe Illustrator 19.0.0, SVG Export Plug-In . SVG Version: 6.00 Build 0)  -->
<svg version="1.1" id="Capa_1" xmlns="http://www.w3.org/2000/svg" x="0px" y="0px"
     viewBox="0 0 512 512" style="enable-background:new 0 0 512 512;" xml:space="preserve">
<path d="M175.994,464c0,26.56,21.44,48,48,48s48-21.44,48-48v-16h-96V464z"/>
<path d="M143.994,0c-34.24,0-66.56,11.84-90.56,33.28c-3.52,2.88-5.44,7.36-5.44,11.84v133.76c0,4.48,1.92,8.96,5.44,11.84
	c31.68,28.16,79.68,39.68,122.56,29.76V416h96V112C271.994,50.24,214.714,0,143.994,0z M96.634,128c-8.832,0-16.16-7.168-16.16-16
	s7.008-16,15.84-16h0.32c8.832,0,16,7.168,16,16S105.466,128,96.634,128z M191.994,128c-8.832,0-16-7.168-16-16s-7.168-16-16-16
	s-16-7.168-16-16s7.168-16,16-16c26.464,0,48,21.536,48,48C207.994,120.832,200.826,128,191.994,128z"/>
<path d="M430.202,349.6c19.52-6.112,33.792-24.096,33.792-45.6c0-26.464-21.536-48-48-48h-32c-8.832,0-16,7.168-16,16v128
	c0,8.832,7.168,16,16,16s16-7.168,16-16v-37.312l35.2,46.912c3.168,4.192,7.968,6.4,12.8,6.4c3.328,0,6.72-1.024,9.6-3.2
	c7.072-5.312,8.512-15.328,3.232-22.4L430.202,349.6z M415.994,320h-16v-32h16c8.8,0,16,7.2,16,16S424.794,320,415.994,320z"/>
<g>
</g>
<g>
</g>
<g>
</g>
<g>
</g>
<g>
</g>
<g>
</g>
<g>
</g>
<g>
</g>
<g>
</g>
<g>
</g>
<g>
</g>
<g>
</g>
<g>
</g>
<g>
</g>
<g>
</g>
</svg>
