<?xml version="1.0" encoding="iso-8859-1"?>
<!-- Generator: Adobe Illustrator 19.0.0, SVG Export Plug-In . SVG Version: 6.00 Build 0)  -->
<svg version="1.1" id="Capa_1" xmlns="http://www.w3.org/2000/svg" x="0px" y="0px"
     viewBox="0 0 448 448" style="enable-background:new 0 0 448 448;" xml:space="preserve">
<path d="M8.16,210.048l256-144c4.928-2.784,11.008-2.752,15.904,0.128C284.96,69.056,288,74.304,288,80v62.592l136.16-76.544
	c4.96-2.784,11.008-2.72,15.936,0.128C444.992,69.056,448,74.304,448,80v288c0,5.696-3.008,10.944-7.904,13.824
	C437.6,383.264,434.784,384,432,384c-2.688,0-5.408-0.672-7.84-2.048L288,305.408V368c0,5.696-3.04,10.944-7.936,13.824
	s-10.976,2.912-15.904,0.128l-256-144C3.136,235.104,0,229.792,0,224S3.136,212.896,8.16,210.048z"/>
<g>
</g>
<g>
</g>
<g>
</g>
<g>
</g>
<g>
</g>
<g>
</g>
<g>
</g>
<g>
</g>
<g>
</g>
<g>
</g>
<g>
</g>
<g>
</g>
<g>
</g>
<g>
</g>
<g>
</g>
</svg>
