<?xml version="1.0" encoding="iso-8859-1"?>
<!-- Generator: Adobe Illustrator 19.0.0, SVG Export Plug-In . SVG Version: 6.00 Build 0)  -->
<svg version="1.1" id="Capa_1" xmlns="http://www.w3.org/2000/svg" x="0px" y="0px"
     viewBox="0 0 512 512" style="enable-background:new 0 0 512 512;" xml:space="preserve">
<path d="M256,192c35.296,0,64-28.704,64-64V64c0-35.296-28.704-64-64-64s-64,28.704-64,64v64C192,163.296,220.704,192,256,192z"/>
<path d="M176,352c-26.464,0-48,21.536-48,48v64c0,26.464,21.536,48,48,48s48-21.536,48-48v-64C224,373.536,202.464,352,176,352z
	 M192,464c0,8.8-7.168,16-16,16s-16-7.2-16-16v-64c0-8.8,7.168-16,16-16s16,7.2,16,16V464z"/>
<path d="M368,352c-8.832,0-16,7.168-16,16v60.224l-33.696-67.36c-3.328-6.624-10.624-10.304-18.016-8.416
	C293.088,354.112,288,360.608,288,368v128c0,8.832,7.168,16,16,16s16-7.168,16-16v-60.224l33.696,67.36
	c2.752,5.536,8.32,8.864,14.304,8.864c1.216,0,2.432-0.128,3.68-0.448c7.232-1.664,12.32-8.16,12.32-15.552V368
	C384,359.168,376.832,352,368,352z"/>
<path d="M368,96c-8.832,0-16,7.168-16,16v16c0,52.928-43.072,96-96,96s-96-43.072-96-96v-16c0-8.832-7.168-16-16-16s-16,7.168-16,16
	v16c0,65.088,49.024,118.4,112,126.368V304c0,8.832,7.168,16,16,16s16-7.168,16-16v-49.632C334.976,246.4,384,193.088,384,128v-16
	C384,103.168,376.832,96,368,96z"/>
<g>
</g>
<g>
</g>
<g>
</g>
<g>
</g>
<g>
</g>
<g>
</g>
<g>
</g>
<g>
</g>
<g>
</g>
<g>
</g>
<g>
</g>
<g>
</g>
<g>
</g>
<g>
</g>
<g>
</g>
</svg>
