<?xml version="1.0" encoding="iso-8859-1"?>
<!-- Generator: Adobe Illustrator 19.0.0, SVG Export Plug-In . SVG Version: 6.00 Build 0)  -->
<svg version="1.1" id="Capa_1" xmlns="http://www.w3.org/2000/svg" x="0px" y="0px"
     viewBox="0 0 512.01 512.01" style="enable-background:new 0 0 512.01 512.01;" xml:space="preserve">
<path d="M400.005,352.01c61.76,0,112-50.24,112-112c0-60.544-48.384-109.728-108.448-111.648
	c-58.656-17.632-214.176-64.384-245.6-120.224c-3.584-6.304-10.944-9.504-18.016-7.584c-7.04,1.824-11.936,8.192-11.936,15.456v256
	c0,7.264,4.896,13.632,11.936,15.456c1.376,0.384,2.72,0.544,4.064,0.544c5.664,0,11.04-3.04,13.952-8.128
	c31.008-55.04,182.464-101.216,243.84-119.68c43.264,0.96,78.208,36.32,78.208,79.808c0,44.096-35.872,80-80,80h-32h-288
	c-8.832,0-16,7.168-16,16v48h-16h-32c-8.832,0-16,7.168-16,16s7.168,16,16,16h16v64h-16c-8.832,0-16,7.168-16,16s7.168,16,16,16h32
	h352h32c8.832,0,16-7.168,16-16s-7.168-16-16-16h-16v-64h16c8.832,0,16-7.168,16-16s-7.168-16-16-16h-32h-16v-32H400.005z"/>
<g>
</g>
<g>
</g>
<g>
</g>
<g>
</g>
<g>
</g>
<g>
</g>
<g>
</g>
<g>
</g>
<g>
</g>
<g>
</g>
<g>
</g>
<g>
</g>
<g>
</g>
<g>
</g>
<g>
</g>
</svg>
