<?xml version="1.0" encoding="iso-8859-1"?>
<!-- Generator: Adobe Illustrator 19.0.0, SVG Export Plug-In . SVG Version: 6.00 Build 0)  -->
<svg version="1.1" id="Capa_1" xmlns="http://www.w3.org/2000/svg" x="0px" y="0px"
     viewBox="0 0 512 512" style="enable-background:new 0 0 512 512;" xml:space="preserve">
<path d="M288.058,0h-256c-17.632,0-32,14.368-32,32v448c0,17.664,14.368,32,32,32h256c17.664,0,32-14.336,32-32V32
	C320.058,14.368,305.722,0,288.058,0z M288.058,416h-256V64h256V416z"/>
<path d="M128.058,384c35.904,0,64-21.088,64-48V165.952c14.496,6.464,32,18.656,32,40.032c0,8.832,7.168,16,16,16
	s16-7.136,16-15.968c0-50.048-50.368-72.736-77.024-77.728c-4.672-0.864-9.536,0.352-13.184,3.392s-5.792,7.552-5.792,12.32v150.464
	c-9.408-4-20.192-6.464-32-6.464c-35.904,0-64,21.088-64,48S92.154,384,128.058,384z"/>
<path d="M437.082,74.976c-6.24-6.24-16.384-6.24-22.624,0s-6.24,16.384,0,22.624c87.328,87.328,87.328,229.44,0,316.8
	c-6.24,6.24-6.24,16.384,0,22.624c3.136,3.136,7.232,4.672,11.328,4.672s8.192-1.568,11.328-4.672
	C536.89,337.184,536.89,174.784,437.082,74.976z"/>
<path d="M391.802,120.224c-6.24-6.24-16.384-6.24-22.624,0s-6.24,16.384,0,22.624c30.208,30.24,46.88,70.432,46.88,113.152
	s-16.672,82.912-46.88,113.12c-6.24,6.24-6.24,16.384,0,22.624c3.136,3.136,7.232,4.672,11.328,4.672s8.192-1.568,11.328-4.672
	c36.256-36.256,56.224-84.448,56.224-135.744S428.09,156.512,391.802,120.224z"/>
<g>
</g>
<g>
</g>
<g>
</g>
<g>
</g>
<g>
</g>
<g>
</g>
<g>
</g>
<g>
</g>
<g>
</g>
<g>
</g>
<g>
</g>
<g>
</g>
<g>
</g>
<g>
</g>
<g>
</g>
</svg>
