<?xml version="1.0" encoding="iso-8859-1"?>
<!-- Generator: Adobe Illustrator 19.0.0, SVG Export Plug-In . SVG Version: 6.00 Build 0)  -->
<svg version="1.1" id="Capa_1" xmlns="http://www.w3.org/2000/svg" x="0px" y="0px"
     viewBox="0 0 512 512" style="enable-background:new 0 0 512 512;" xml:space="preserve">
<path d="M208,128h-64c-8.832,0-16,7.168-16,16s7.168,16,16,16h64c8.832,0,16-7.168,16-16S216.832,128,208,128z"/>
<path d="M208,192h-64c-8.832,0-16,7.168-16,16s7.168,16,16,16h64c8.832,0,16-7.168,16-16S216.832,192,208,192z"/>
<path d="M480,0H32C14.368,0,0,14.368,0,32v288c0,17.664,14.368,32,32,32h208v72.288l-74.016,59.2c-6.88,5.536-8,15.584-2.496,22.496
	c3.168,3.968,7.84,6.016,12.512,6.016c3.488,0,7.04-1.152,9.984-3.488L256,452.48l69.984,55.968
	c2.976,2.336,6.496,3.488,10.016,3.488c4.672,0,9.344-2.048,12.512-6.016c5.504-6.912,4.416-16.96-2.496-22.496L272,424.32V352h208
	c17.664,0,32-14.336,32-32V32C512,14.368,497.664,0,480,0z M448,304c0,8.832-7.168,16-16,16H256H80c-8.832,0-16-7.168-16-16V64
	c0-6.272,3.68-11.968,9.376-14.56C132.224,22.688,201.248,27.264,256,60.896c54.752-33.6,123.68-38.208,182.624-11.456
	C444.352,52.032,448,57.728,448,64V304z M480,336v-16h0.032L480,336z"/>
<path d="M336,192h-32c-8.832,0-16,7.168-16,16s7.168,16,16,16h32c8.832,0,16-7.168,16-16S344.832,192,336,192z"/>
<path d="M368,128h-64c-8.832,0-16,7.168-16,16s7.168,16,16,16h64c8.832,0,16-7.168,16-16S376.832,128,368,128z"/>
<g>
</g>
<g>
</g>
<g>
</g>
<g>
</g>
<g>
</g>
<g>
</g>
<g>
</g>
<g>
</g>
<g>
</g>
<g>
</g>
<g>
</g>
<g>
</g>
<g>
</g>
<g>
</g>
<g>
</g>
</svg>
