<?xml version="1.0" encoding="iso-8859-1"?>
<!-- Generator: Adobe Illustrator 19.0.0, SVG Export Plug-In . SVG Version: 6.00 Build 0)  -->
<svg version="1.1" id="Capa_1" xmlns="http://www.w3.org/2000/svg" x="0px" y="0px"
     viewBox="0 0 480 480" style="enable-background:new 0 0 480 480;" xml:space="preserve">
<path d="M448,16H32C14.368,16,0,30.336,0,48v384c0,17.664,14.368,32,32,32h416c17.664,0,32-14.336,32-32V48
	C480,30.336,465.664,16,448,16z M128,400H64v-32h64V400z M128,336H64v-32h64V336z M224,400h-64v-32h64V400z M224,336h-64v-32h64V336
	z M224,272h-64v-32h64V272z M224,208h-64v-32h64V208z M224,144h-64v-32h64V144z M320,400h-64v-32h64V400z M320,336h-64v-32h64V336z
	 M320,272h-64v-32h64V272z M416,400h-64v-32h64V400z M416,336h-64v-32h64V336z M416,272h-64v-32h64V272z M416,208h-64v-32h64V208z"
	/>
<g>
</g>
<g>
</g>
<g>
</g>
<g>
</g>
<g>
</g>
<g>
</g>
<g>
</g>
<g>
</g>
<g>
</g>
<g>
</g>
<g>
</g>
<g>
</g>
<g>
</g>
<g>
</g>
<g>
</g>
</svg>
