<?xml version="1.0" encoding="iso-8859-1"?>
<!-- Generator: Adobe Illustrator 19.0.0, SVG Export Plug-In . SVG Version: 6.00 Build 0)  -->
<svg version="1.1" id="Capa_1" xmlns="http://www.w3.org/2000/svg" x="0px" y="0px"
     viewBox="0 0 512 512" style="enable-background:new 0 0 512 512;" xml:space="preserve">
<path d="M288,32H32C14.368,32,0,46.368,0,64v384c0,17.664,14.368,32,32,32h256c17.664,0,32-14.336,32-32V64
	C320,46.368,305.664,32,288,32z M240,222.016c-8.832,0-16-7.168-16-16c0-21.376-17.504-33.6-32-40.032V336c0,26.912-28.096,48-64,48
	s-64-21.088-64-48s28.096-48,64-48c11.808,0,22.592,2.464,32,6.464V144c0-4.768,2.112-9.28,5.792-12.32
	c3.68-3.04,8.512-4.32,13.184-3.392C205.6,133.28,256,155.968,256,206.016C256,214.848,248.832,222.016,240,222.016z"/>
<path d="M352,66.88v144.064c18.592,6.592,32,24.192,32,45.056s-13.408,38.464-32,45.056V445.12c90.784-15.264,160-94.016,160-189.12
	S442.784,82.144,352,66.88z"/>
<g>
</g>
<g>
</g>
<g>
</g>
<g>
</g>
<g>
</g>
<g>
</g>
<g>
</g>
<g>
</g>
<g>
</g>
<g>
</g>
<g>
</g>
<g>
</g>
<g>
</g>
<g>
</g>
<g>
</g>
</svg>
