<?xml version="1.0" encoding="iso-8859-1"?>
<!-- Generator: Adobe Illustrator 19.0.0, SVG Export Plug-In . SVG Version: 6.00 Build 0)  -->
<svg version="1.1" id="Capa_1" xmlns="http://www.w3.org/2000/svg" x="0px" y="0px"
     viewBox="0 0 512 512" style="enable-background:new 0 0 512 512;" xml:space="preserve">
<path d="M480,0h-64c-8.832,0-16,7.168-16,16v480c0,8.832,7.168,16,16,16h64c8.832,0,16-7.168,16-16V16C496,7.168,488.832,0,480,0z"
	/>
<path d="M32,160c-8.832,0-16,7.168-16,16v160c0,8.832,7.168,16,16,16h60.96l19.04,7.616V464c0,8.832,7.168,16,16,16h128
	c8.832,0,16-7.168,16-16v-40.384l96,38.4V49.952L92.928,160H32z M240,448h-96v-75.584l96,38.4V448z"/>
<g>
</g>
<g>
</g>
<g>
</g>
<g>
</g>
<g>
</g>
<g>
</g>
<g>
</g>
<g>
</g>
<g>
</g>
<g>
</g>
<g>
</g>
<g>
</g>
<g>
</g>
<g>
</g>
<g>
</g>
</svg>
