<?xml version="1.0" encoding="iso-8859-1"?>
<!-- Generator: Adobe Illustrator 19.0.0, SVG Export Plug-In . SVG Version: 6.00 Build 0)  -->
<svg version="1.1" id="Capa_1" xmlns="http://www.w3.org/2000/svg" x="0px" y="0px"
     viewBox="0 0 512 512" style="enable-background:new 0 0 512 512;" xml:space="preserve">
<path d="M395.328,139.328c-6.24,6.24-16.384,6.24-22.624,0L352,118.624l-20.672,20.672c-6.24,6.24-16.384,6.24-22.624,0L288,118.624
	l-27.072,27.072c9.056,33.376,31.008,60,59.072,71.712V480c0,17.664,14.336,32,32,32s32-14.336,32-32V217.408
	c28.064-11.744,50.016-38.336,59.072-71.712L416,118.624L395.328,139.328z"/>
<path d="M299.328,84.672L320,105.376l20.672-20.672c6.24-6.24,16.384-6.24,22.624,0L384,105.376l20.672-20.672
	c6.24-6.24,16.384-6.24,22.624,0l20.064,20.064C444.096,46.336,402.88,0,352,0s-92.096,46.336-95.36,104.736l20.064-20.064
	C282.944,78.432,293.056,78.432,299.328,84.672z"/>
<path d="M116.672,372.672c6.24-6.24,16.384-6.24,22.624,0L160,393.376l20.672-20.672c6.24-6.24,16.384-6.24,22.624,0L224,393.376
	l27.072-27.072c-9.056-33.376-31.008-60-59.072-71.712V32c0-17.664-14.336-32-32-32s-32,14.336-32,32v262.592
	c-28.064,11.744-50.016,38.336-59.072,71.712L96,393.376L116.672,372.672z"/>
<path d="M212.672,427.328L192,406.624l-20.672,20.672c-6.24,6.24-16.384,6.24-22.624,0L128,406.624l-20.672,20.672
	c-6.24,6.24-16.384,6.24-22.624,0L64.64,407.264C67.904,465.664,109.12,512,160,512s92.096-46.336,95.36-104.736l-20.064,20.064
	C229.056,433.568,218.944,433.568,212.672,427.328z"/>
<g>
</g>
<g>
</g>
<g>
</g>
<g>
</g>
<g>
</g>
<g>
</g>
<g>
</g>
<g>
</g>
<g>
</g>
<g>
</g>
<g>
</g>
<g>
</g>
<g>
</g>
<g>
</g>
<g>
</g>
</svg>
