<?xml version="1.0" encoding="iso-8859-1"?>
<!-- Generator: Adobe Illustrator 19.0.0, SVG Export Plug-In . SVG Version: 6.00 Build 0)  -->
<svg version="1.1" id="Capa_1" xmlns="http://www.w3.org/2000/svg" x="0px" y="0px"
     viewBox="0 0 512 512" style="enable-background:new 0 0 512 512;" xml:space="preserve">
<path d="M240,464c0,26.56,21.44,48,48,48s48-21.44,48-48v-16h-96V464z"/>
<path d="M458.56,33.28C434.56,11.84,402.24,0,368,0c-70.72,0-128,50.24-128,112v304h96V220.48c42.88,9.92,90.88-1.6,122.56-29.76
	c3.52-2.88,5.44-7.36,5.44-11.84V45.12C464,40.64,462.08,36.16,458.56,33.28z M352,96c-8.832,0-16,7.168-16,16s-7.168,16-16,16
	s-16-7.168-16-16c0-26.464,21.536-48,48-48c8.832,0,16,7.168,16,16S360.832,96,352,96z M415.36,128c-8.832,0-16-7.168-16-16
	s7.168-16,16-16h0.32c8.832,0,15.84,7.168,15.84,16S424.192,128,415.36,128z"/>
<path d="M128,384H80V272c0-8.832-7.168-16-16-16s-16,7.168-16,16v128c0,8.832,7.168,16,16,16h64c8.832,0,16-7.168,16-16
	S136.832,384,128,384z"/>
<g>
</g>
<g>
</g>
<g>
</g>
<g>
</g>
<g>
</g>
<g>
</g>
<g>
</g>
<g>
</g>
<g>
</g>
<g>
</g>
<g>
</g>
<g>
</g>
<g>
</g>
<g>
</g>
<g>
</g>
</svg>
