<?xml version="1.0" encoding="iso-8859-1"?>
<!-- Generator: Adobe Illustrator 19.0.0, SVG Export Plug-In . SVG Version: 6.00 Build 0)  -->
<svg version="1.1" id="Capa_1" xmlns="http://www.w3.org/2000/svg" x="0px" y="0px"
     viewBox="0 0 512 512" style="enable-background:new 0 0 512 512;" xml:space="preserve">
<path d="M480,288v-32c0-123.52-100.512-224-224-224C132.48,32,32,132.48,32,256v32c-17.632,0-32,14.336-32,32v128
	c0,17.664,14.368,32,32,32h64c17.632,0,32-14.336,32-32V320c0-17.664-14.368-32-32-32v-32c0-88.224,71.776-160,160-160
	s160,71.776,160,160v32c-17.664,0-32,14.336-32,32v128c0,17.664,14.336,32,32,32h64c17.664,0,32-14.336,32-32V320
	C512,302.336,497.664,288,480,288z"/>
<g>
</g>
<g>
</g>
<g>
</g>
<g>
</g>
<g>
</g>
<g>
</g>
<g>
</g>
<g>
</g>
<g>
</g>
<g>
</g>
<g>
</g>
<g>
</g>
<g>
</g>
<g>
</g>
<g>
</g>
</svg>
