<?xml version="1.0" encoding="iso-8859-1"?>
<!-- Generator: Adobe Illustrator 19.0.0, SVG Export Plug-In . SVG Version: 6.00 Build 0)  -->
<svg version="1.1" id="Capa_1" xmlns="http://www.w3.org/2000/svg" x="0px" y="0px"
     viewBox="0 0 512 512" style="enable-background:new 0 0 512 512;" xml:space="preserve">
<path d="M16,128h16v32h448v-32h16c8.832,0,16-7.168,16-16C512,50.24,461.76,0,400,0c-8.832,0-16,7.168-16,16v16H128V16
	c0-8.832-7.168-16-16-16C50.24,0,0,50.24,0,112C0,120.832,7.168,128,16,128z M416,33.6c31.328,6.4,56,31.104,62.4,62.4H416V33.6z
	 M320.32,96h0.32c8.832,0,16,7.168,16,16s-7.168,16-16,16c-8.832,0-16.16-7.168-16.16-16S311.456,96,320.32,96z M256.32,96h0.32
	c8.832,0,16,7.168,16,16s-7.168,16-16,16c-8.832,0-16.16-7.168-16.16-16S247.488,96,256.32,96z M192.32,96h0.32
	c8.832,0,16,7.168,16,16s-7.168,16-16,16s-16.16-7.168-16.16-16S183.488,96,192.32,96z M96,33.6V96H33.6
	C40,64.704,64.704,40,96,33.6z"/>
<path d="M496,384h-16V192H32v192H16c-8.832,0-16,7.168-16,16c0,61.76,50.24,112,112,112c8.832,0,16-7.168,16-16v-16h256v16
	c0,8.832,7.168,16,16,16c61.76,0,112-50.24,112-112C512,391.168,504.832,384,496,384z M96,478.4C64.704,472,40,447.296,33.6,416H96
	V478.4z M256,416c-52.928,0-96-43.072-96-96s43.072-96,96-96s96,43.072,96,96S308.928,416,256,416z M416,478.4V416h62.4
	C472,447.328,447.328,472,416,478.4z"/>
<g>
</g>
<g>
</g>
<g>
</g>
<g>
</g>
<g>
</g>
<g>
</g>
<g>
</g>
<g>
</g>
<g>
</g>
<g>
</g>
<g>
</g>
<g>
</g>
<g>
</g>
<g>
</g>
<g>
</g>
</svg>
