<?xml version="1.0" encoding="iso-8859-1"?>
<!-- Generator: Adobe Illustrator 19.0.0, SVG Export Plug-In . SVG Version: 6.00 Build 0)  -->
<svg version="1.1" id="Capa_1" xmlns="http://www.w3.org/2000/svg" x="0px" y="0px"
     viewBox="0 0 448 448" style="enable-background:new 0 0 448 448;" xml:space="preserve">
<path d="M439.84,210.042l-256-144c-4.928-2.752-11.008-2.72-15.904,0.128S160,74.298,160,79.994v62.592L23.84,66.042
	c-4.96-2.784-11.008-2.72-15.936,0.128C3.008,69.05,0,74.298,0,79.994v288c0,5.696,3.008,10.944,7.904,13.824
	c2.496,1.44,5.312,2.176,8.096,2.176c2.688,0,5.408-0.672,7.84-2.048L160,305.402v62.592c0,5.696,3.04,10.944,7.936,13.824
	s10.976,2.912,15.904,0.128l256-144c5.024-2.848,8.16-8.16,8.16-13.952S444.864,212.89,439.84,210.042z"/>
<g>
</g>
<g>
</g>
<g>
</g>
<g>
</g>
<g>
</g>
<g>
</g>
<g>
</g>
<g>
</g>
<g>
</g>
<g>
</g>
<g>
</g>
<g>
</g>
<g>
</g>
<g>
</g>
<g>
</g>
</svg>
