<?xml version="1.0" encoding="iso-8859-1"?>
<!-- Generator: Adobe Illustrator 19.0.0, SVG Export Plug-In . SVG Version: 6.00 Build 0)  -->
<svg version="1.1" id="Capa_1" xmlns="http://www.w3.org/2000/svg" x="0px" y="0px"
     viewBox="0 0 512 512" style="enable-background:new 0 0 512 512;" xml:space="preserve">
<path d="M176,256c-38.624,0-70.944-27.52-78.368-64H0v128h257.632c7.424-36.48,39.712-64,78.368-64s70.944,27.52,78.368,64H512V192
	H254.368C246.944,228.48,214.624,256,176,256z"/>
<path d="M336,416c-38.656,0-70.944-27.52-78.368-64H0v96c0,17.664,14.368,32,32,32h448c17.664,0,32-14.336,32-32v-96h-97.632
	C406.944,388.48,374.656,416,336,416z"/>
<path d="M480,32H32C14.368,32,0,46.368,0,64v96h97.632c7.424-36.48,39.744-64,78.368-64s70.944,27.52,78.368,64H512V64
	C512,46.368,497.664,32,480,32z"/>
<circle cx="176" cy="176" r="48"/>
<circle cx="336" cy="336" r="48"/>
<g>
</g>
<g>
</g>
<g>
</g>
<g>
</g>
<g>
</g>
<g>
</g>
<g>
</g>
<g>
</g>
<g>
</g>
<g>
</g>
<g>
</g>
<g>
</g>
<g>
</g>
<g>
</g>
<g>
</g>
</svg>
