<?xml version="1.0" encoding="iso-8859-1"?>
<!-- Generator: Adobe Illustrator 19.0.0, SVG Export Plug-In . SVG Version: 6.00 Build 0)  -->
<svg version="1.1" id="Capa_1" xmlns="http://www.w3.org/2000/svg" x="0px" y="0px"
     viewBox="0 0 512.027 512.027" style="enable-background:new 0 0 512.027 512.027;" xml:space="preserve">
<path d="M507.347,49.954L462.099,4.706c-6.24-6.24-16.384-6.24-22.624,0l-45.248,45.248c-6.24,6.24-6.24,16.384,0,22.624
	L281.939,184.802l-59.488-93.248c-3.488-5.472-9.952-8.32-16.384-7.136c-6.4,1.184-11.424,6.144-12.768,12.512l-21.728,105.088
	L9.235,277.986c-5.888,2.752-9.536,8.832-9.216,15.36c0.352,6.496,4.64,12.16,10.816,14.24l144.256,49.312l49.312,144.288
	c2.112,6.144,7.744,10.432,14.272,10.784c0.288,0.032,0.576,0.032,0.864,0.032c6.176,0,11.84-3.552,14.496-9.216l76.448-163.328
	l95.872-31.776c5.952-1.984,10.144-7.2,10.88-13.408c0.672-6.176-2.272-12.224-7.616-15.456l-81.664-49.44l111.52-111.52
	c6.24,6.24,16.384,6.24,22.624,0l45.248-45.248C513.587,66.338,513.587,56.194,507.347,49.954z M235.347,331.33
	c-3.136,3.104-7.232,4.672-11.328,4.672s-8.192-1.568-11.328-4.672l-32-32c-6.24-6.24-6.24-16.384,0-22.624s16.384-6.24,22.624,0
	l32,32C241.587,314.946,241.587,325.058,235.347,331.33z"/>
<g>
</g>
<g>
</g>
<g>
</g>
<g>
</g>
<g>
</g>
<g>
</g>
<g>
</g>
<g>
</g>
<g>
</g>
<g>
</g>
<g>
</g>
<g>
</g>
<g>
</g>
<g>
</g>
<g>
</g>
</svg>
