<?xml version="1.0" encoding="iso-8859-1"?>
<!-- Generator: Adobe Illustrator 19.0.0, SVG Export Plug-In . SVG Version: 6.00 Build 0)  -->
<svg version="1.1" id="Capa_1" xmlns="http://www.w3.org/2000/svg" x="0px" y="0px"
     viewBox="0 0 512.012 512.012" style="enable-background:new 0 0 512.012 512.012;" xml:space="preserve">
<path d="M489.598,85.724c24.192-24.192,29.632-57.984,12.16-75.456c-17.472-17.472-51.264-12.032-75.456,12.16
	c-18.208,18.208-25.792,41.856-20.96,59.904L13.118,435.58c-17.472,17.472-17.472,45.824,0,63.328
	c17.472,17.472,45.824,17.472,63.328,0l352.64-392.48C447.198,111.612,471.166,104.156,489.598,85.724z"/>
<path d="M82.942,106.396l110.816,123.36l38.304-34.496L106.654,82.3c4.832-18.048-2.72-41.696-20.928-59.904
	C61.502-1.796,27.742-7.236,10.238,10.236C-7.234,27.74-1.794,61.5,22.398,85.724C40.83,104.156,64.798,111.612,82.942,106.396z"/>
<path d="M498.878,435.58L320.606,275.004l-43.104,47.968l158.08,175.936c17.472,17.472,45.824,17.472,63.328,0
	C516.382,481.404,516.382,453.052,498.878,435.58z"/>
<g>
</g>
<g>
</g>
<g>
</g>
<g>
</g>
<g>
</g>
<g>
</g>
<g>
</g>
<g>
</g>
<g>
</g>
<g>
</g>
<g>
</g>
<g>
</g>
<g>
</g>
<g>
</g>
<g>
</g>
</svg>
