<?xml version="1.0" encoding="iso-8859-1"?>
<!-- Generator: Adobe Illustrator 19.0.0, SVG Export Plug-In . SVG Version: 6.00 Build 0)  -->
<svg version="1.1" id="Capa_1" xmlns="http://www.w3.org/2000/svg" x="0px" y="0px"
     viewBox="0 0 512.013 512.013" style="enable-background:new 0 0 512.013 512.013;" xml:space="preserve">
<path d="M336.007,160.01c26.464,0,48-21.536,48-48c0-3.264-0.352-6.464-0.96-9.568l121.184-72.704
	c7.584-4.544,10.048-14.368,5.504-21.952c-4.544-7.584-14.432-10.016-21.952-5.472L366.375,75.178
	c-8.32-6.88-18.784-11.168-30.368-11.168c-26.464,0-48,21.536-48,48S309.543,160.01,336.007,160.01z"/>
<path d="M7.783,29.738l121.184,72.704c-0.608,3.104-0.96,6.304-0.96,9.568c0,26.464,21.536,48,48,48s48-21.536,48-48
	s-21.536-48-48-48c-11.584,0-22.048,4.288-30.368,11.136L24.231,2.282C16.647-2.262,6.823,0.202,2.279,7.786
	C-2.265,15.338,0.199,25.194,7.783,29.738z"/>
<path d="M496.007,288.01c8.832,0,16-7.168,16-16v-64c0-8.832-7.168-16-16-16h-480c-8.832,0-16,7.168-16,16v64
	c0,8.832,7.168,16,16,16h16v192h-16c-8.832,0-16,7.168-16,16s7.168,16,16,16h480c8.832,0,16-7.168,16-16s-7.168-16-16-16h-16v-192
	H496.007z M368.007,375.37v104.64h-32V374.634l-80-80l-80,80V480.01h-32V375.37l-101.92-87.36h49.152l67.904,58.208l58.24-58.208
	h77.248l58.208,58.208l67.936-58.208h49.152L368.007,375.37z"/>
<g>
</g>
<g>
</g>
<g>
</g>
<g>
</g>
<g>
</g>
<g>
</g>
<g>
</g>
<g>
</g>
<g>
</g>
<g>
</g>
<g>
</g>
<g>
</g>
<g>
</g>
<g>
</g>
<g>
</g>
</svg>
