<?xml version="1.0" encoding="iso-8859-1"?>
<!-- Generator: Adobe Illustrator 19.0.0, SVG Export Plug-In . SVG Version: 6.00 Build 0)  -->
<svg version="1.1" id="Capa_1" xmlns="http://www.w3.org/2000/svg" x="0px" y="0px"
     viewBox="0 0 480 480" style="enable-background:new 0 0 480 480;" xml:space="preserve">
<path d="M416,0H64c-8.832,0-16,7.168-16,16v32c0,8.832,7.168,16,16,16h352c8.832,0,16-7.168,16-16V16C432,7.168,424.832,0,416,0z"/>
<path d="M320.448,327.904C371.808,294.208,412.096,221.856,415.36,96H64.64c3.328,127.168,44.384,199.776,96.48,233.056
	c-1.184,44.16-11.776,88.192-31.456,127.84c-2.464,4.96-2.176,10.848,0.736,15.552c2.912,4.672,8.064,7.552,13.6,7.552h193.6
	c5.536,0,10.656-2.848,13.6-7.52c2.912-4.704,3.2-10.56,0.736-15.52C332.224,416.832,321.632,372.416,320.448,327.904z"/>
<g>
</g>
<g>
</g>
<g>
</g>
<g>
</g>
<g>
</g>
<g>
</g>
<g>
</g>
<g>
</g>
<g>
</g>
<g>
</g>
<g>
</g>
<g>
</g>
<g>
</g>
<g>
</g>
<g>
</g>
</svg>
