<?xml version="1.0" encoding="iso-8859-1"?>
<!-- Generator: Adobe Illustrator 19.0.0, SVG Export Plug-In . SVG Version: 6.00 Build 0)  -->
<svg version="1.1" id="Capa_1" xmlns="http://www.w3.org/2000/svg" x="0px" y="0px"
     viewBox="0 0 512 512" style="enable-background:new 0 0 512 512;" xml:space="preserve">
<path d="M256,336c-91.616,0-193.792-15.968-248.416-56.832C2.816,286.848,0,295.104,0,304c0,60.384,118.208,93.088,240,95.744V480
	c0,8.832,7.168,16,16,16s16-7.168,16-16v-80.256c121.792-2.656,240-35.36,240-95.744c0-8.896-2.816-17.152-7.584-24.832
	C449.792,320.032,347.616,336,256,336z"/>
<path d="M256,176c46.24,0,96-15.008,96-48c0-29.184-38.976-44.256-80-47.36V32c0-8.832-7.168-16-16-16s-16,7.168-16,16v48.64
	c-41.024,3.104-80,18.176-80,47.36C160,160.992,209.76,176,256,176z"/>
<path d="M256,304c127.232,0,256-32.96,256-96c0-41.152-55.04-69.408-128.576-84.128C383.52,125.28,384,126.56,384,128
	c0,47.84-51.424,80-128,80s-128-32.16-128-80c0-1.44,0.48-2.72,0.576-4.128C55.04,138.592,0,166.848,0,208
	C0,271.04,128.768,304,256,304z"/>
<g>
</g>
<g>
</g>
<g>
</g>
<g>
</g>
<g>
</g>
<g>
</g>
<g>
</g>
<g>
</g>
<g>
</g>
<g>
</g>
<g>
</g>
<g>
</g>
<g>
</g>
<g>
</g>
<g>
</g>
</svg>
