<?xml version="1.0" encoding="iso-8859-1"?>
<!-- Generator: Adobe Illustrator 19.0.0, SVG Export Plug-In . SVG Version: 6.00 Build 0)  -->
<svg version="1.1" id="Capa_1" xmlns="http://www.w3.org/2000/svg" x="0px" y="0px"
     viewBox="0 0 512 512" style="enable-background:new 0 0 512 512;" xml:space="preserve">
<path d="M256,0C114.848,0,0,114.848,0,256s114.848,256,256,256s256-114.848,256-256S397.152,0,256,0z M256,416
	c-88.224,0-160-71.776-160-160c0-8.832,7.168-16,16-16s16,7.168,16,16c0,70.592,57.408,128,128,128c8.832,0,16,7.168,16,16
	S264.832,416,256,416z M256,304c-26.496,0-48-21.504-48-48s21.504-48,48-48s48,21.504,48,48S282.496,304,256,304z M400,272
	c-8.832,0-16-7.168-16-16c0-70.592-57.408-128-128-128c-8.832,0-16-7.168-16-16s7.168-16,16-16c88.224,0,160,71.776,160,160
	C416,264.832,408.832,272,400,272z"/>
<g>
</g>
<g>
</g>
<g>
</g>
<g>
</g>
<g>
</g>
<g>
</g>
<g>
</g>
<g>
</g>
<g>
</g>
<g>
</g>
<g>
</g>
<g>
</g>
<g>
</g>
<g>
</g>
<g>
</g>
</svg>
