<?xml version="1.0" encoding="iso-8859-1"?>
<!-- Generator: Adobe Illustrator 19.0.0, SVG Export Plug-In . SVG Version: 6.00 Build 0)  -->
<svg version="1.1" id="Capa_1" xmlns="http://www.w3.org/2000/svg" x="0px" y="0px"
     viewBox="0 0 512 512" style="enable-background:new 0 0 512 512;" xml:space="preserve">
<path d="M396.864,128.032C381.952,54.016,317.088,0,240,0C173.696,0,114.944,40.448,91.136,101.536C37.824,117.6,0,167.712,0,224
	c0,70.592,57.408,128,128,128v-80c0-22.784,16.224-42.592,38.56-47.072l160.032-32c14.272-2.72,28.64,0.864,39.648,9.792
	l0.288,0.224C377.632,212.128,384,225.632,384,240v112h16c61.76,0,112-50.24,112-112C512,177.248,459.296,126.336,396.864,128.032z"
	/>
<path d="M332.864,224.32l-160,32C165.376,257.824,160,264.384,160,272v150.464c-9.408-4-20.192-6.464-32-6.464
	c-35.904,0-64,21.088-64,48s28.096,48,64,48s64-21.088,64-48V349.12l128-25.6v66.976c-9.408-4.032-20.192-6.496-32-6.496
	c-35.904,0-64,21.088-64,48s28.096,48,64,48c35.872,0,64-21.088,64-48V240c0-4.8-2.144-9.344-5.856-12.384
	C342.432,224.64,337.632,223.392,332.864,224.32z M320,290.88l-128,25.6v-31.36l128-25.6V290.88z"/>
<g>
</g>
<g>
</g>
<g>
</g>
<g>
</g>
<g>
</g>
<g>
</g>
<g>
</g>
<g>
</g>
<g>
</g>
<g>
</g>
<g>
</g>
<g>
</g>
<g>
</g>
<g>
</g>
<g>
</g>
</svg>
