<?xml version="1.0" encoding="iso-8859-1"?>
<!-- Generator: Adobe Illustrator 19.0.0, SVG Export Plug-In . SVG Version: 6.00 Build 0)  -->
<svg version="1.1" id="Capa_1" xmlns="http://www.w3.org/2000/svg" x="0px" y="0px"
     viewBox="0 0 512 512" style="enable-background:new 0 0 512 512;" xml:space="preserve">
<path d="M0,32v448c0,17.664,14.368,32,32,32h32V0H32C14.368,0,0,14.368,0,32z"/>
<path d="M480,0H96v512h384c17.664,0,32-14.336,32-32V32C512,14.368,497.664,0,480,0z M288,416c-88.224,0-160-71.776-160-160
	S199.776,96,288,96s160,71.776,160,160S376.224,416,288,416z"/>
<path d="M288,160c-8.832,0-16,7.168-16,16s7.168,16,16,16c35.296,0,64,28.704,64,64c0,8.832,7.168,16,16,16s16-7.168,16-16
	C384,203.072,340.928,160,288,160z"/>
<circle cx="288" cy="256" r="32"/>
<g>
</g>
<g>
</g>
<g>
</g>
<g>
</g>
<g>
</g>
<g>
</g>
<g>
</g>
<g>
</g>
<g>
</g>
<g>
</g>
<g>
</g>
<g>
</g>
<g>
</g>
<g>
</g>
<g>
</g>
</svg>
