<?xml version="1.0" encoding="iso-8859-1"?>
<!-- Generator: Adobe Illustrator 19.0.0, SVG Export Plug-In . SVG Version: 6.00 Build 0)  -->
<svg version="1.1" id="Capa_1" xmlns="http://www.w3.org/2000/svg" x="0px" y="0px"
     viewBox="0 0 512 512" style="enable-background:new 0 0 512 512;" xml:space="preserve">
<path d="M480,80H32C14.368,80,0,94.368,0,112v288c0,17.664,14.368,32,32,32h96l64-64h128l64,64h96c17.664,0,32-14.336,32-32V112
	C512,94.368,497.664,80,480,80z M352,272H160c-35.296,0-64-28.704-64-64s28.704-64,64-64h192c35.296,0,64,28.704,64,64
	S387.296,272,352,272z"/>
<path d="M214.816,176c5.632,9.44,9.184,20.224,9.184,32s-3.552,22.56-9.184,32h82.368c-5.632-9.44-9.184-20.224-9.184-32
	s3.552-22.56,9.184-32H214.816z"/>
<circle cx="352" cy="208" r="32"/>
<circle cx="160" cy="208" r="32"/>
<g>
</g>
<g>
</g>
<g>
</g>
<g>
</g>
<g>
</g>
<g>
</g>
<g>
</g>
<g>
</g>
<g>
</g>
<g>
</g>
<g>
</g>
<g>
</g>
<g>
</g>
<g>
</g>
<g>
</g>
</svg>
