<?xml version="1.0" encoding="iso-8859-1"?>
<!-- Generator: Adobe Illustrator 19.0.0, SVG Export Plug-In . SVG Version: 6.00 Build 0)  -->
<svg version="1.1" id="Capa_1" xmlns="http://www.w3.org/2000/svg" x="0px" y="0px"
     viewBox="0 0 512 512" style="enable-background:new 0 0 512 512;" xml:space="preserve">
<path d="M0,464c0,17.6,14.4,32,32,32h448c17.6,0,32-14.4,32-32V240H0V464z M368,304c44.128,0,80,35.872,80,80s-35.872,80-80,80
	s-80-35.872-80-80S323.872,304,368,304z M144,304c44.096,0,80,35.872,80,80s-35.904,80-80,80s-80-35.872-80-80S99.904,304,144,304z"
	/>
<path d="M480,112h-32V80c0-35.296-28.704-64-64-64H128c-35.296,0-64,28.704-64,64v32H32c-17.6,0-32,14.4-32,32v64h512v-64
	C512,126.4,497.6,112,480,112z M112,176c-8.832,0-16-7.168-16-16s7.168-16,16-16s16,7.168,16,16S120.832,176,112,176z M176,176
	c-8.832,0-16-7.168-16-16s7.168-16,16-16s16,7.168,16,16S184.832,176,176,176z M336,176c-8.832,0-16-7.168-16-16s7.168-16,16-16
	s16,7.168,16,16S344.832,176,336,176z M400,176c-8.832,0-16-7.168-16-16s7.168-16,16-16s16,7.168,16,16S408.832,176,400,176z
	 M416,112H96V80c0-17.632,14.368-32,32-32h256c17.664,0,32,14.368,32,32V112z"/>
<g>
</g>
<g>
</g>
<g>
</g>
<g>
</g>
<g>
</g>
<g>
</g>
<g>
</g>
<g>
</g>
<g>
</g>
<g>
</g>
<g>
</g>
<g>
</g>
<g>
</g>
<g>
</g>
<g>
</g>
</svg>
