<?xml version="1.0" encoding="iso-8859-1"?>
<!-- Generator: Adobe Illustrator 19.0.0, SVG Export Plug-In . SVG Version: 6.00 Build 0)  -->
<svg version="1.1" id="Capa_1" xmlns="http://www.w3.org/2000/svg" x="0px" y="0px"
     viewBox="0 0 512 512" style="enable-background:new 0 0 512 512;" xml:space="preserve">
<path d="M144.003,464c0,26.56,21.44,48,48,48s48-21.44,48-48v-16h-96V464z"/>
<path d="M112.003,0c-34.24,0-66.56,11.84-90.56,33.28c-3.52,2.88-5.44,7.36-5.44,11.84v133.76c0,4.48,1.92,8.96,5.44,11.84
	c31.68,28.16,79.68,39.68,122.56,29.76V416h96V112C240.003,50.24,182.723,0,112.003,0z M64.643,128c-8.832,0-16.16-7.168-16.16-16
	s7.008-16,15.84-16h0.32c8.832,0,16,7.168,16,16S73.475,128,64.643,128z M160.003,128c-8.832,0-16-7.168-16-16s-7.168-16-16-16
	s-16-7.168-16-16s7.168-16,16-16c26.464,0,48,21.536,48,48C176.003,120.832,168.835,128,160.003,128z"/>
<path d="M487.171,417.696L419.779,384l67.36-33.696c5.088-2.56,8.48-7.616,8.8-13.312c0.32-5.696-2.336-11.168-7.104-14.304l-96-64
	c-4.928-3.264-11.264-3.584-16.448-0.8c-5.184,2.784-8.384,8.192-8.384,14.112v86.112l-72.832-36.448
	c-7.904-3.904-17.504-0.704-21.472,7.168c-3.968,7.904-0.736,17.504,7.168,21.472L348.227,384l-67.36,33.696
	c-7.904,3.968-11.104,13.568-7.168,21.472c3.968,7.904,13.536,11.136,21.472,7.168l72.832-36.448V496
	c0,5.92,3.264,11.328,8.448,14.08c2.368,1.28,4.96,1.92,7.552,1.92c3.104,0,6.176-0.896,8.864-2.688l96-64
	c4.736-3.168,7.424-8.64,7.104-14.304S492.259,420.256,487.171,417.696z M400.003,301.92l48.192,32.128l-48.192,24.064V301.92z
	 M400.003,466.08v-56.224l48.192,24.096L400.003,466.08z"/>
<g>
</g>
<g>
</g>
<g>
</g>
<g>
</g>
<g>
</g>
<g>
</g>
<g>
</g>
<g>
</g>
<g>
</g>
<g>
</g>
<g>
</g>
<g>
</g>
<g>
</g>
<g>
</g>
<g>
</g>
</svg>
