<?xml version="1.0" encoding="iso-8859-1"?>
<!-- Generator: Adobe Illustrator 19.0.0, SVG Export Plug-In . SVG Version: 6.00 Build 0)  -->
<svg version="1.1" id="Capa_1" xmlns="http://www.w3.org/2000/svg" x="0px" y="0px"
     viewBox="0 0 511.2 511.2" style="enable-background:new 0 0 511.2 511.2;" xml:space="preserve">
<path d="M85.824,269.248l-45.792-45.792C17.792,250.144,3.328,283.488,0,320h64.8C67.552,301.12,74.848,283.872,85.824,269.248z"/>
<path d="M264.576,402.752l45.76,45.76c22.24-26.688,36.704-60,40.032-96.544h-64.8C282.848,370.88,275.552,388.128,264.576,402.752z
	"/>
<path d="M511.2,90.528l-22.624-67.872L420.704,0v45.248l-16.8,16.8l-9.376-9.376c-6.24-6.24-16.384-6.24-22.624,0
	s-6.24,16.384,0,22.624l9.376,9.376l-106.432,106.4c-24.192-16.672-52.832-27.008-83.648-29.824v64.384
	c48.864,7.072,87.296,45.504,94.368,94.368h64.384c-2.816-30.816-13.152-59.456-29.856-83.648l106.4-106.4l9.376,9.376
	c3.136,3.104,7.232,4.672,11.328,4.672s8.192-1.568,11.328-4.672c6.24-6.24,6.24-16.384,0-22.624l-9.376-9.376l16.8-16.8H511.2z"/>
<path d="M64.832,352H0c3.328,36.512,17.76,69.856,40.032,96.544l45.76-45.76C74.848,388.128,67.552,370.88,64.832,352z"/>
<path d="M62.656,471.168c26.688,22.24,60.032,36.704,96.544,40.032v-64.8c-18.88-2.752-36.128-10.048-50.752-20.992L62.656,471.168z
	"/>
<path d="M159.2,225.632V160.8c-36.512,3.328-69.856,17.792-96.544,40.032l45.792,45.792
	C123.072,235.648,140.32,228.352,159.2,225.632z"/>
<path d="M191.2,446.368v64.8c36.512-3.328,69.856-17.76,96.544-40.032l-45.792-45.792C227.328,436.352,210.08,443.648,191.2,446.368
	z"/>
<path d="M186.528,356.672l-32-32c-6.24-6.24-16.384-6.24-22.624,0c-6.24,6.24-6.24,16.384,0,22.624l32,32
	c3.104,3.136,7.2,4.704,11.296,4.704s8.192-1.568,11.328-4.672C192.768,373.056,192.768,362.944,186.528,356.672z"/>
<g>
</g>
<g>
</g>
<g>
</g>
<g>
</g>
<g>
</g>
<g>
</g>
<g>
</g>
<g>
</g>
<g>
</g>
<g>
</g>
<g>
</g>
<g>
</g>
<g>
</g>
<g>
</g>
<g>
</g>
</svg>
