<?xml version="1.0" encoding="iso-8859-1"?>
<!-- Generator: Adobe Illustrator 19.0.0, SVG Export Plug-In . SVG Version: 6.00 Build 0)  -->
<svg version="1.1" id="Capa_1" xmlns="http://www.w3.org/2000/svg" x="0px" y="0px"
     viewBox="0 0 512 512" style="enable-background:new 0 0 512 512;" xml:space="preserve">
<path d="M400,128c-44.128,0-80,35.904-80,80v192c0,44.128-35.904,80-80,80h-32c-26.464,0-48-21.536-48-48v-17.632
	c36.48-7.424,64-39.744,64-78.368v-48h16c8.832,0,16-7.168,16-16v-64c0-8.832-7.168-16-16-16h-48V48c0-26.464-21.536-48-48-48
	S96,21.536,96,48v144H48c-8.832,0-16,7.168-16,16v64c0,8.832,7.168,16,16,16h16v48c0,38.656,27.52,70.944,64,78.368V432
	c0,44.128,35.904,80,80,80h32c61.76,0,112-50.24,112-112V208c0-26.464,21.536-48,48-48s48,21.536,48,48v96c0,8.832,7.168,16,16,16
	s16-7.168,16-16v-96C480,163.904,444.128,128,400,128z"/>
<g>
</g>
<g>
</g>
<g>
</g>
<g>
</g>
<g>
</g>
<g>
</g>
<g>
</g>
<g>
</g>
<g>
</g>
<g>
</g>
<g>
</g>
<g>
</g>
<g>
</g>
<g>
</g>
<g>
</g>
</svg>
