<?xml version="1.0" encoding="iso-8859-1"?>
<!-- Generator: Adobe Illustrator 19.0.0, SVG Export Plug-In . SVG Version: 6.00 Build 0)  -->
<svg version="1.1" id="Capa_1" xmlns="http://www.w3.org/2000/svg" x="0px" y="0px"
     viewBox="0 0 512 512" style="enable-background:new 0 0 512 512;" xml:space="preserve">
<path d="M480,112H246.624l-59.296-59.328C184.32,49.696,180.256,48,176,48H32C14.368,48,0,62.368,0,80v352c0,17.664,14.368,32,32,32
	h448c17.664,0,32-14.336,32-32V144C512,126.368,497.664,112,480,112z M240,238.016c-8.832,0-16-7.168-16-16
	c0-21.376-17.504-33.6-32-40.032V352c0,26.912-28.096,48-64,48s-64-21.088-64-48s28.096-48,64-48c11.808,0,22.592,2.464,32,6.464
	V160c0-4.768,2.112-9.28,5.792-12.32c3.68-3.04,8.512-4.32,13.184-3.392C205.6,149.28,256,171.968,256,222.016
	C256,230.848,248.832,238.016,240,238.016z"/>
<g>
</g>
<g>
</g>
<g>
</g>
<g>
</g>
<g>
</g>
<g>
</g>
<g>
</g>
<g>
</g>
<g>
</g>
<g>
</g>
<g>
</g>
<g>
</g>
<g>
</g>
<g>
</g>
<g>
</g>
</svg>
