<?xml version="1.0" encoding="iso-8859-1"?>
<!-- Generator: Adobe Illustrator 19.0.0, SVG Export Plug-In . SVG Version: 6.00 Build 0)  -->
<svg version="1.1" id="Capa_1" xmlns="http://www.w3.org/2000/svg" x="0px" y="0px"
     viewBox="0 0 512 512" style="enable-background:new 0 0 512 512;" xml:space="preserve">
<polygon points="320,0 320,128 448,128 "/>
<path d="M288,128V0H96C78.368,0,64,14.368,64,32v448c0,17.664,14.368,32,32,32h320c17.664,0,32-14.336,32-32V160H320
	C302.368,160,288,145.632,288,128z M352,270.016c0,8.832-7.168,16-16,16s-16-7.168-16-16c0-21.376-17.504-33.6-32-40.032V400
	c0,26.912-28.096,48-64,48s-64-21.088-64-48s28.096-48,64-48c11.808,0,22.592,2.464,32,6.464V208c0-4.768,2.112-9.28,5.792-12.32
	s8.512-4.256,13.184-3.392C301.632,197.28,352,219.968,352,270.016z"/>
<g>
</g>
<g>
</g>
<g>
</g>
<g>
</g>
<g>
</g>
<g>
</g>
<g>
</g>
<g>
</g>
<g>
</g>
<g>
</g>
<g>
</g>
<g>
</g>
<g>
</g>
<g>
</g>
<g>
</g>
</svg>
