<?xml version="1.0" encoding="iso-8859-1"?>
<!-- Generator: Adobe Illustrator 19.0.0, SVG Export Plug-In . SVG Version: 6.00 Build 0)  -->
<svg version="1.1" id="Capa_1" xmlns="http://www.w3.org/2000/svg" x="0px" y="0px"
     viewBox="0 0 511.992 511.992" style="enable-background:new 0 0 511.992 511.992;" xml:space="preserve">
<path d="M449.952,14.04c-18.688-18.72-49.184-18.72-67.872,0L280.256,115.896l-11.328-11.328c-6.24-6.24-16.384-6.24-22.624,0
	l-90.528,90.496c-14.688,14.72-17.408,36.48-8.992,54.272l-24.928,24.928c-12.48,12.48-12.48,32.768,0,45.248l0.448,0.48
	l-53.216,57.92c-0.48,0.512-0.928,1.056-1.312,1.632C55.008,393.88,48,412.44,48,431.992c0,44.128,35.904,80,80,80
	c23.072,0,44.992-9.984,60.256-27.36c0.128-0.16,0.256-0.288,0.384-0.448l126.656-147.168c0.576-0.48,1.056-0.992,1.568-1.536
	c8.864-9.824,21.664-15.488,35.136-15.488c26.464,0,48,21.536,48,48c0,12-4.32,23.328-11.904,31.776
	c-0.256,0.224-0.512,0.48-0.736,0.704l-4.544,4.64c-0.64,0.64-1.152,1.28-1.664,2.016L308.32,485.08
	c-6.016,6.464-5.696,16.608,0.736,22.624c3.104,2.848,7.04,4.288,10.944,4.288c4.288,0,8.544-1.728,11.68-5.056l77.376-82.816
	l1.28-1.312C424.32,408.024,432,388.568,432,367.992c0-44.128-35.872-80-80-80c-22.496,0-43.936,9.472-58.816,26.016
	c-0.672,0.544-1.28,1.152-1.856,1.824L164.8,462.808c-0.096,0.128-0.224,0.256-0.32,0.384c-9.312,10.816-22.272,16.8-36.48,16.8
	c-26.464,0-48-21.536-48-48c0-12.16,4.48-23.584,12.608-32.224c0.544-0.576,0.992-1.12,1.408-1.76l51.008-55.52
	c6.176,5.92,14.112,8.992,22.08,8.992c8.192,0,16.384-3.104,22.624-9.344l24.672-24.672c6.368,3.04,13.312,4.8,20.576,4.8
	c12.8,0,24.864-4.992,33.952-14.048l90.528-90.528c6.24-6.24,6.24-16.384,0-22.624l-11.328-11.328L449.952,81.912
	C468.672,63.224,468.672,32.76,449.952,14.04z"/>
<g>
</g>
<g>
</g>
<g>
</g>
<g>
</g>
<g>
</g>
<g>
</g>
<g>
</g>
<g>
</g>
<g>
</g>
<g>
</g>
<g>
</g>
<g>
</g>
<g>
</g>
<g>
</g>
<g>
</g>
</svg>
