<?xml version="1.0" encoding="iso-8859-1"?>
<!-- Generator: Adobe Illustrator 19.0.0, SVG Export Plug-In . SVG Version: 6.00 Build 0)  -->
<svg version="1.1" id="Capa_1" xmlns="http://www.w3.org/2000/svg" x="0px" y="0px"
     viewBox="0 0 512 512" style="enable-background:new 0 0 512 512;" xml:space="preserve">
<path d="M128,464c0,26.56,21.44,48,48,48s48-21.44,48-48v-16h-96V464z"/>
<path d="M96,0C61.76,0,29.44,11.84,5.44,33.28C1.92,36.16,0,40.64,0,45.12v133.76c0,4.48,1.92,8.96,5.44,11.84
	C37.12,218.88,85.12,230.4,128,220.48V416h96V112C224,50.24,166.72,0,96,0z M48.64,128c-8.832,0-16.16-7.168-16.16-16
	s7.008-16,15.84-16h0.32c8.832,0,16,7.168,16,16S57.472,128,48.64,128z M144,128c-8.832,0-16-7.168-16-16s-7.168-16-16-16
	s-16-7.168-16-16s7.168-16,16-16c26.464,0,48,21.536,48,48C160,120.832,152.832,128,144,128z"/>
<path d="M288,464c0,26.56,21.44,48,48,48s48-21.44,48-48v-16h-96V464z"/>
<path d="M506.56,33.28C482.56,11.84,450.24,0,416,0c-70.72,0-128,50.24-128,112v304h96V220.48c42.88,9.92,90.88-1.6,122.56-29.76
	c3.52-2.88,5.44-7.36,5.44-11.84V45.12C512,40.64,510.08,36.16,506.56,33.28z M400,96c-8.832,0-16,7.168-16,16s-7.168,16-16,16
	s-16-7.168-16-16c0-26.464,21.536-48,48-48c8.832,0,16,7.168,16,16S408.832,96,400,96z M463.36,128c-8.832,0-16-7.168-16-16
	s7.168-16,16-16h0.32c8.832,0,15.84,7.168,15.84,16S472.192,128,463.36,128z"/>
<g>
</g>
<g>
</g>
<g>
</g>
<g>
</g>
<g>
</g>
<g>
</g>
<g>
</g>
<g>
</g>
<g>
</g>
<g>
</g>
<g>
</g>
<g>
</g>
<g>
</g>
<g>
</g>
<g>
</g>
</svg>
