<?xml version="1.0" encoding="iso-8859-1"?>
<!-- Generator: Adobe Illustrator 19.0.0, SVG Export Plug-In . SVG Version: 6.00 Build 0)  -->
<svg version="1.1" id="Capa_1" xmlns="http://www.w3.org/2000/svg" x="0px" y="0px"
     viewBox="0 0 512 512" style="enable-background:new 0 0 512 512;" xml:space="preserve">
<path d="M160,464c0,26.56,21.44,48,48,48s48-21.44,48-48v-16h-96V464z"/>
<path d="M128,0C93.76,0,61.44,11.84,37.44,33.28C33.92,36.16,32,40.64,32,45.12v133.76c0,4.48,1.92,8.96,5.44,11.84
	c31.68,28.16,79.68,39.68,122.56,29.76V416h96V112C256,50.24,198.72,0,128,0z M80.64,128c-8.832,0-16.16-7.168-16.16-16
	s7.008-16,15.84-16h0.32c8.832,0,16,7.168,16,16S89.472,128,80.64,128z M176,128c-8.832,0-16-7.168-16-16s-7.168-16-16-16
	s-16-7.168-16-16s7.168-16,16-16c26.464,0,48,21.536,48,48C192,120.832,184.832,128,176,128z"/>
<path d="M464,224h-16v-16c0-8.832-7.168-16-16-16h-96c-8.832,0-16,7.168-16,16v16h-16c-8.832,0-16,7.168-16,16v256
	c0,8.832,7.168,16,16,16h160c8.832,0,16-7.168,16-16V240C480,231.168,472.832,224,464,224z M448,448H320v-32h128V448z"/>
<g>
</g>
<g>
</g>
<g>
</g>
<g>
</g>
<g>
</g>
<g>
</g>
<g>
</g>
<g>
</g>
<g>
</g>
<g>
</g>
<g>
</g>
<g>
</g>
<g>
</g>
<g>
</g>
<g>
</g>
</svg>
